<svg width="225" height="69" viewBox="0 0 225 69" fill="none" xmlns="http://www.w3.org/2000/svg">
<path d="M89.5654 14.5321C89.4007 14.7921 83.1553 30.4234 83.1553 30.5652C83.1553 30.6833 83.5081 30.7188 84.6725 30.7188H86.1898L86.2368 37.7133C86.2839 44.4952 86.2956 44.7551 86.5426 45.6649C87.3307 48.5359 89.0596 50.6154 91.6472 51.7969C93.4232 52.6239 93.5761 52.6357 99.3275 52.6357H104.503L104.538 48.5595C104.561 46.3147 104.538 44.2589 104.503 43.9753L104.432 43.4791H100.845H97.2692V37.0989V30.7188L99.6451 30.6952L102.021 30.6597L103.856 26.1109L105.679 21.5621L101.48 21.5267L97.2692 21.503V17.9585V14.414H93.4585C91.0356 14.414 89.6124 14.4613 89.5654 14.5321Z" fill="black"/>
<path d="M176.189 17.013V19.6123H181.717H187.245V17.013V14.4137H181.717H176.189V17.013Z" fill="black"/>
<path d="M194.914 15.265C193.973 17.5689 188.857 30.3292 188.798 30.5064C188.751 30.7073 188.88 30.7191 190.338 30.7191H191.938L191.973 37.8908C192.02 45.9015 191.985 45.5706 192.879 47.4374C193.996 49.7886 196.008 51.5018 198.595 52.2934L199.654 52.6242L204.923 52.6715L210.18 52.7188V48.0991V43.4794H206.593H203.006V37.0992V30.7191H205.288C206.969 30.7191 207.593 30.6836 207.675 30.5655C207.746 30.4946 208.569 28.486 209.533 26.1112C210.486 23.7364 211.286 21.7278 211.321 21.6451C211.368 21.5388 210.498 21.5033 207.193 21.5033H203.006V17.9588V14.4143H199.136H195.267L194.914 15.265Z" fill="black"/>
<path d="M63.4539 20.7589C62.4894 20.8416 60.4194 21.2906 59.3844 21.6214C55.2325 22.992 51.7393 25.9339 49.8692 29.6557C49.4105 30.5654 48.7636 32.4677 48.5048 33.6728C48.199 35.0788 48.1873 38.9778 48.4931 40.3719C49.9162 46.9884 54.7268 51.6435 61.6073 53.0613C63.101 53.3685 66.2061 53.4867 67.8645 53.2976C70.0874 53.0377 72.628 52.317 74.3334 51.4545C76.5093 50.3557 78.8028 48.3826 80.0731 46.5158C80.6023 45.7478 81.6256 43.7865 81.6256 43.5502C81.6256 43.5148 78.9792 43.4793 75.733 43.4793H69.8522L69.3347 43.8338C67.3823 45.1807 63.8773 45.1925 61.9366 43.8456C60.7487 43.0067 59.8195 41.6125 59.4667 40.1475L59.3961 39.8166L71.0048 39.793L82.6253 39.7576L82.5901 37.6899C82.5077 33.5783 81.6726 30.5773 79.8025 27.7535C76.8151 23.2519 71.3812 20.6172 65.2769 20.6999C64.5359 20.7117 63.7126 20.7353 63.4539 20.7589ZM67.147 29.4312C68.9818 29.8565 70.6285 31.4161 71.3342 33.4247L71.4988 33.9091H65.4534H59.4079L59.5725 33.4247C60.2665 31.4516 61.772 29.9865 63.6068 29.4785C64.2772 29.2894 66.4296 29.2658 67.147 29.4312Z" fill="black"/>
<path d="M119.228 20.7938C112.265 21.68 107.102 25.6616 105.114 31.6873C103.75 35.7871 104.067 40.7377 105.926 44.4476C108.407 49.4217 113.112 52.5527 119.193 53.2971C120.792 53.4861 124.015 53.368 125.556 53.049C127.92 52.5764 130.178 51.6548 132.013 50.4378C133.248 49.6108 135.059 47.8503 135.953 46.5861C139.446 41.6592 139.846 34.5229 136.941 29.088C135.483 26.3587 132.848 23.8539 130.037 22.5188C127.567 21.3373 125.179 20.8056 122.145 20.7347C120.981 20.7111 119.663 20.7347 119.228 20.7938ZM123.368 30.3049C124.391 30.5767 125.215 31.0611 125.956 31.8291C127.238 33.176 127.755 34.6765 127.744 37.0986C127.744 41.0448 125.873 43.4906 122.486 43.9632C119.205 44.424 116.523 42.6044 115.653 39.3435C115.37 38.2919 115.382 35.799 115.664 34.7474C116.288 32.4435 117.758 30.8484 119.746 30.3168C120.569 30.0923 122.557 30.0805 123.368 30.3049Z" fill="black"/>
<path d="M12.8558 21.6453C12.8911 21.728 15.6668 28.6398 19.0307 36.9931C22.3945 45.3582 25.2055 52.3054 25.2761 52.4472L25.4172 52.6953H31.9214C36.9907 52.6953 38.4609 52.6599 38.5432 52.5417C38.6255 52.4472 50.3048 23.5003 51.0105 21.6453C51.0576 21.5272 49.8461 21.5035 45.0356 21.5272L39.0137 21.5626L35.5322 32.3379C33.6151 38.2691 32.0273 43.1251 31.992 43.1251C31.9567 43.1251 30.3689 38.2691 28.4517 32.3379L24.9585 21.5626L18.8778 21.5272C14.0202 21.5035 12.8087 21.5272 12.8558 21.6453Z" fill="black"/>
<path d="M140.646 26.0169C139.646 28.5099 138.846 30.5775 138.87 30.6248C138.893 30.6838 139.658 30.7193 140.563 30.7193H142.198L142.222 41.6719L142.257 52.6362L147.761 52.6717L153.254 52.6953V41.7073V30.7075L156.712 30.7429L160.17 30.7784L160.676 31.1328C160.958 31.3337 161.346 31.7236 161.546 32.0071L161.899 32.5152L161.958 42.5698L162.017 52.6362L167.521 52.6717L173.025 52.6953L172.99 40.8566L172.955 29.0061L172.684 28.12C171.861 25.4498 169.791 23.134 167.368 22.1652C165.663 21.4917 166.039 21.5035 153.772 21.5035H142.469L140.646 26.0169Z" fill="black"/>
<path d="M176.213 37.0635L176.248 52.6357H181.717H187.187L187.222 37.0635L187.245 21.503H181.717H176.189L176.213 37.0635Z" fill="black"/>
</svg>
