<svg width="225" height="38" viewBox="0 0 225 38" fill="none" xmlns="http://www.w3.org/2000/svg">
<path opacity="0.99" d="M81.875 9.2959H41.3882L32.457 36.9861H81.8736L81.875 9.2959Z" fill="#2D2A26"/>
<path d="M95.6299 4.85221C95.6299 1.93407 97.6602 0 100.714 0C102.286 0 103.554 0.513655 104.499 1.52655L103.339 2.67572C102.79 1.98124 101.874 1.49641 100.729 1.49641C98.7905 1.49641 97.508 2.84214 97.508 4.86662C97.508 6.89241 98.8209 8.25255 100.76 8.25255C102.057 8.25255 102.957 7.67862 103.568 6.74172L104.806 7.82931C103.89 9.0689 102.484 9.74897 100.729 9.74897C97.6761 9.74897 95.6299 7.78345 95.6299 4.83648V4.85221ZM114.698 0.136276L110.546 9.64283H108.591L109.676 7.1951L106.223 0.136276H108.178L110.606 5.27545L112.744 0.136276H114.698ZM122.683 9.64414L120.3 6.12193L117.918 9.64283H115.798L119.279 4.71593L116.057 0.136276H118.179L120.3 3.30993L122.423 0.136276H124.544L121.309 4.73034L124.804 9.65724H122.683V9.64414ZM134.24 9.64414L134.27 3.20379L128.224 9.64283H127.094V0.136276H128.926L128.881 6.57531L134.927 0.136276H136.072V9.64283L134.24 9.64414ZM146.162 8.132V9.64283H139.522V0.136276H146.056V1.6471H141.354V4.08041H145.643V5.57683H141.354V8.14641H146.162V8.132ZM95.6299 18.4706C95.6299 15.5525 97.6602 13.6184 100.714 13.6184C102.286 13.6184 103.554 14.1321 104.499 15.145L103.339 16.2941C102.79 15.5983 101.874 15.1148 100.729 15.1148C98.7905 15.1148 97.508 16.4592 97.508 18.485C97.508 20.5108 98.8209 21.871 100.76 21.871C102.057 21.871 102.957 21.297 103.568 20.3588L104.805 21.4464C103.889 22.6873 102.484 23.3674 100.728 23.3674C97.6761 23.3674 95.6299 21.4019 95.6299 18.4549V18.4706ZM114.057 15.2511H111.126V23.2612H109.294V15.2524H106.378V13.7403H114.057V15.2524V15.2511ZM123.828 16.8078C123.828 18.7274 122.468 20.0116 120.408 20.0116H118.408V23.2468H116.576V13.739H120.469C122.499 13.739 123.828 14.9786 123.828 16.8078ZM121.95 16.8681C121.95 15.8853 121.293 15.2354 120.27 15.2354H118.408V18.5008H120.27C121.309 18.5008 121.95 17.8508 121.95 16.8681ZM125.933 18.5008C125.933 15.5682 127.965 13.6184 130.988 13.6184C134.011 13.6184 136.025 15.5682 136.025 18.5008C136.025 21.432 133.995 23.3818 130.988 23.3818C127.98 23.3818 125.933 21.432 125.933 18.5008ZM134.117 18.5008C134.117 16.475 132.865 15.1148 130.972 15.1148C129.079 15.1148 127.812 16.4592 127.812 18.5008C127.812 20.541 129.079 21.8854 130.972 21.8854C132.865 21.8854 134.117 20.541 134.117 18.5008ZM146.055 23.2455L146.087 16.8078L140.041 23.2468H138.911V13.739H140.742L140.697 20.178L146.743 13.739H147.888V23.2468L146.055 23.2455ZM158.086 15.2511H155.154V23.2612H153.323V15.2524H150.407V13.7403H158.086V15.2524V15.2511ZM167.23 21.7504V23.2612H160.59V13.7547H167.124V15.2655H162.422V17.6988H166.711V19.1952H162.422V21.7648H167.23V21.7504ZM178.39 23.2455H176.558V15.2354H172.757L172.391 20.9039C172.283 22.3846 171.185 23.3674 169.597 23.3674V21.7806C170.131 21.7806 170.513 21.3573 170.559 20.7375L171.031 13.7246H178.39V23.2455ZM189.368 20.4348C189.368 22.1121 188.039 23.2468 186.024 23.2468H181.856V13.739H183.688V17.6241H186.1C188.055 17.6241 189.368 18.7419 189.368 20.4348ZM187.489 20.4348C187.489 19.6342 186.848 19.1048 185.932 19.1048H183.688V21.7347H185.901C186.848 21.7347 187.489 21.2053 187.489 20.4204V20.4348ZM200.801 13.739V23.2468H198.97V19.1507H193.825V23.2468H191.993V13.739H193.825V17.6543H198.97V13.739H200.801ZM211.779 20.4348C211.779 22.1121 210.45 23.2468 208.436 23.2468H204.268V13.739H206.1V17.6241H208.511C210.466 17.6241 211.779 18.7419 211.779 20.4348ZM209.901 20.4348C209.901 19.6342 209.26 19.1048 208.344 19.1048H206.1V21.7347H208.314C209.26 21.7347 209.901 21.2053 209.901 20.4204V20.4348ZM214.879 13.739V23.2468H213.045V13.739H214.879ZM225 21.7504V23.2612H218.358V13.7547H224.892V15.2655H220.19V17.6988H224.481V19.1952H220.19V21.7648H225V21.7504ZM95.6299 32.0733C95.6299 29.1565 97.6602 27.2211 100.714 27.2211C102.286 27.2211 103.554 27.7348 104.499 28.7477L103.339 29.8968C102.79 29.2023 101.874 28.7175 100.729 28.7175C98.7905 28.7175 97.508 30.0632 97.508 32.0877C97.508 34.1135 98.8209 35.4737 100.76 35.4737C102.057 35.4737 102.957 34.8997 103.568 33.9772L104.805 35.0648C103.889 36.3057 102.484 36.9858 100.728 36.9858C97.6761 36.9858 95.6299 35.0216 95.6299 32.0733ZM116.53 36.8639L116.149 30.3803L113.217 36.8639H112.21L109.278 30.3961L108.897 36.8639H107.065L107.722 27.3115H109.736L112.729 33.9025L115.72 27.3115H117.735L118.377 36.8639H116.53ZM128.164 35.3531V36.8639H121.522V27.3574H128.056V28.8695H123.353V31.3028H127.643V32.7992H123.353V35.3675H128.162L128.164 35.3531ZM130.407 32.0733C130.407 29.1565 132.439 27.2211 135.491 27.2211C137.064 27.2211 138.331 27.7348 139.277 28.7477L138.117 29.8968C137.567 29.2023 136.651 28.7175 135.507 28.7175C133.568 28.7175 132.285 30.0632 132.285 32.0877C132.285 34.1135 133.598 35.4737 135.537 35.4737C136.835 35.4737 137.735 34.8997 138.347 33.9772L139.583 35.0648C138.667 36.3057 137.263 36.9858 135.507 36.9858C132.453 36.9858 130.407 35.0216 130.407 32.0733ZM149.292 36.8639L149.323 30.4262L143.277 36.8639H142.148V27.3574H143.98L143.933 33.7964L149.979 27.3574H151.124V36.8639H149.292Z" fill="#9E9E9E"/>
<path d="M0 0V27.6902H45.0662L54 0H0Z" fill="#FF5100"/>
<path d="M15.6032 13.7248L11.3427 9.25H9.61816V18.4696H12.3049L12.2599 13.9817L16.519 18.4696H18.2436V9.25131H15.5568L15.6032 13.7261V13.7248ZM22.9607 15.009H26.4111V12.6058H22.9607V11.6689H26.7936V9.25H20.2739V18.4696H26.8849V16.052H22.9607V15.009ZM38.4261 9.25131L37.0364 14.0419L35.6335 9.25H33.2815L31.8773 14.0419L30.473 9.25H27.6182L30.5948 18.4696H32.9308L34.4568 13.6934L35.9683 18.4709H38.3043L41.2955 9.25L38.4261 9.25131ZM53.3873 18.4853L51.8758 23.2615L50.3643 18.4853H48.031L45.0385 27.6905H47.9079L49.2976 22.8986L50.7018 27.6905H53.0524L54.458 22.8986L55.8477 27.6905H58.7171L55.726 18.4853H53.3873ZM62.4098 18.4853H59.723V27.7049H62.4098V18.4853ZM69.357 22.9143L72.3032 18.4853H69.1889L67.8455 20.6317L66.5021 18.4853H63.3707L66.3327 22.9287L63.188 27.6905H66.3168L67.8442 25.227L69.3861 27.6905H72.5149L69.357 22.9143Z" fill="white"/>
</svg>
