<svg width="225" height="54" viewBox="0 0 225 54" fill="none" xmlns="http://www.w3.org/2000/svg">
<g clip-path="url(#clip0_2003_1937)">
<path fill-rule="evenodd" clip-rule="evenodd" d="M82.6657 52.2146L51.2015 0.0418866L41.2587 16.4945L31.3151 0.0410156L9.49884 36.2062H31.0177L51.2023 2.70879L70.6134 34.8754L67.5584 34.8815L51.2023 7.89715L32.6503 38.8749H7.86628L7.125 40.2092H33.3924L51.2023 10.5649L65.8596 34.8832L62.618 34.8919L51.2023 15.9013L35.1733 42.8769H5.49157L4.74942 44.2113H35.9154L51.2023 18.5691L61.1267 34.8928L57.2328 34.9041L51.2023 25.0909L38.2901 46.879H3.11686L2.37471 48.2134H39.0323L51.3506 27.9059L55.6169 34.9041L52.5384 34.9076L51.3506 33.0934L40.5166 50.882H0.741279L0 52.2146H82.6657Z" fill="#2B2A29"/>
<path fill-rule="evenodd" clip-rule="evenodd" d="M0.741211 50.8824L2.37464 48.2137H39.0322L51.3505 27.9062L55.6159 34.9045L52.5374 34.9088L51.3505 33.0946L40.5165 50.8806H0.741211V50.8824Z" fill="#FDC400"/>
<path fill-rule="evenodd" clip-rule="evenodd" d="M3.11719 46.8793H38.2904L51.2027 25.0911L57.2332 34.9052L61.1279 34.893L51.2027 18.5693L35.9157 44.2115H4.74975L3.11719 46.8793Z" fill="#FDC400"/>
<path fill-rule="evenodd" clip-rule="evenodd" d="M5.49121 42.8775H35.1729L51.202 15.901L62.6177 34.8916L65.8592 34.8837L51.202 10.5654L33.3921 40.2088H7.12464L5.49121 42.8775Z" fill="#FDC400"/>
<path fill-rule="evenodd" clip-rule="evenodd" d="M7.86621 38.8761H32.6511L51.2005 7.89755L67.5584 34.8827L70.6133 34.8766L51.2005 2.71094L31.0168 36.2084H9.4979L7.86621 38.8761Z" fill="#FDC400"/>
<path d="M205.609 19.6007L212.347 34.3592H220.299L205.611 3.51824L190.208 34.3592H198.279L205.609 19.6007ZM192.078 19.1782C192.071 17.0749 191.774 15.1753 191.2 13.4934C190.627 11.8116 189.835 10.3327 188.826 9.07066C187.841 7.83301 186.659 6.76524 185.327 5.90991C184.01 5.07374 182.576 4.43629 181.073 4.01817C179.565 3.59843 178.007 3.38599 176.441 3.38672C174.866 3.38672 173.327 3.59749 171.81 4.01817C170.308 4.43499 168.877 5.07255 167.563 5.90991C166.228 6.76321 165.043 7.83154 164.057 9.07153C163.048 10.3327 162.257 11.8116 161.683 13.4934C161.11 15.1753 160.82 17.0748 160.805 19.1774C160.82 21.2877 161.11 23.1873 161.683 24.8761C162.257 26.5579 163.048 28.0377 164.057 29.3058C165.041 30.5477 166.226 31.6163 167.563 32.4675C168.875 33.31 170.307 33.9501 171.81 34.3662C173.327 34.7869 174.866 34.9976 176.441 34.9976C178.017 34.9976 179.556 34.7869 181.073 34.367C182.578 33.9494 184.012 33.3091 185.327 32.4675C186.66 31.614 187.843 30.5457 188.826 29.3058C189.835 28.0377 190.627 26.5658 191.2 24.8761C191.774 23.1864 192.071 21.2877 192.078 19.1774V19.1782ZM168.819 19.1782C168.826 17.8073 169.051 16.6106 169.472 15.5811C169.901 14.5525 170.481 13.6972 171.208 13.0074C171.914 12.339 172.745 11.8169 173.654 11.471C175.464 10.7854 177.463 10.7854 179.273 11.471C180.183 11.8154 181.014 12.3378 181.719 13.0074C182.445 13.6972 183.026 14.5525 183.454 15.582C183.883 16.6106 184.1 17.8073 184.108 19.1774C184.1 20.5552 183.883 21.7659 183.454 22.8023C183.026 23.8397 182.445 24.7019 181.719 25.3909C181.015 26.0671 180.184 26.5971 179.273 26.9499C177.463 27.6348 175.464 27.6348 173.654 26.9499C172.744 26.5956 171.913 26.0659 171.208 25.3909C170.481 24.7028 169.901 23.8397 169.472 22.8023C169.051 21.7659 168.826 20.5552 168.819 19.1774V19.1782ZM144.255 11.6095C144.263 11.0364 144.502 10.6009 144.967 10.2891C145.438 9.9843 146.099 9.82491 146.956 9.82491C147.565 9.83275 148.074 9.9634 148.487 10.2168C148.894 10.4633 149.206 10.7899 149.409 11.188C149.62 11.5869 149.721 12.0067 149.721 12.457C149.721 12.9064 149.62 13.3279 149.409 13.726C149.199 14.1249 148.88 14.4437 148.458 14.6971C148.037 14.9514 147.507 15.0812 146.869 15.089H144.821V21.4393H146.956C147.826 21.4471 148.553 21.6213 149.133 21.9549C149.714 22.2806 150.149 22.7083 150.44 23.2309C150.73 23.7526 150.876 24.3109 150.876 24.8979C150.877 25.4821 150.727 26.0567 150.44 26.5658C150.149 27.0884 149.714 27.5151 149.133 27.8418C148.553 28.1753 147.826 28.3487 146.956 28.3556C146.193 28.3487 145.526 28.1901 144.952 27.8705C144.386 27.5585 143.922 27.09 143.617 26.5214C143.29 25.9352 143.13 25.2454 143.123 24.4415H136.284C136.291 26.7182 136.727 28.6396 137.576 30.1986C138.433 31.7489 139.66 32.9247 141.25 33.7217C142.84 34.5186 144.742 34.9253 146.956 34.9253C148.915 34.9175 150.629 34.671 152.102 34.185C153.569 33.706 154.796 33.0327 155.776 32.1626C156.756 31.2925 157.489 30.2848 157.983 29.1256C158.469 27.9646 158.716 26.7104 158.716 25.3543C158.723 23.6437 158.382 22.1648 157.677 20.9254C156.974 19.6851 155.856 18.6487 154.316 17.8291C154.901 17.3813 155.403 16.8341 155.798 16.2126C156.185 15.6005 156.483 14.9366 156.683 14.2407C156.879 13.5439 156.974 12.8707 156.974 12.1957C156.975 11.0851 156.76 9.98477 156.342 8.95569C155.928 7.91053 155.297 6.96901 154.462 6.13462C153.627 5.30111 152.582 4.63395 151.333 4.14098C150.077 3.64801 148.618 3.40153 146.956 3.38672C145.62 3.38672 144.357 3.55395 143.174 3.88056C141.99 4.21414 140.952 4.71408 140.051 5.39604C139.158 6.06437 138.445 6.94361 137.976 7.95495C137.489 8.9914 137.278 10.202 137.33 11.6087L144.255 11.6095ZM125.734 20.314V34.3592H133.792V3.77866L115.542 18.0042V3.9093H107.571V34.3592L125.734 20.314ZM90.1582 10.8692V34.3592H97.8675V10.8692H105.315V3.91017H82.666V10.8701H90.1582V10.8692Z" fill="#2B2A29"/>
<path fill-rule="evenodd" clip-rule="evenodd" d="M220.3 0C220.693 0 221.083 0.0513871 221.469 0.151548H221.471C221.867 0.257182 222.249 0.409205 222.609 0.604452C222.985 0.807387 223.323 1.05561 223.617 1.34739C223.91 1.63742 224.162 1.971 224.371 2.34726C224.58 2.72177 224.738 3.10761 224.843 3.49694C225.05 4.2809 225.051 5.10609 224.844 5.89036C224.737 6.28842 224.581 6.67167 224.38 7.03132C224.179 7.39643 223.928 7.73155 223.634 8.02684C223.339 8.32127 223.003 8.57283 222.638 8.77413C222.278 8.97552 221.894 9.13145 221.496 9.23836C220.712 9.44685 219.887 9.44685 219.103 9.23836C218.704 9.1319 218.321 8.97594 217.962 8.77413C217.596 8.57303 217.26 8.32179 216.964 8.02771C216.67 7.73174 216.418 7.39606 216.217 7.03045C216.015 6.67143 215.858 6.28878 215.749 5.89123C215.541 5.10658 215.542 4.28112 215.752 3.49694C215.857 3.10587 216.015 2.72177 216.225 2.34726C216.428 1.97892 216.684 1.64163 216.983 1.34565L216.983 1.34477C217.282 1.05091 217.621 0.801579 217.992 0.604452C218.363 0.404129 218.743 0.25171 219.128 0.151548C219.51 0.0511484 219.904 0.000215964 220.3 0ZM220.3 1.14097C220 1.14097 219.704 1.18016 219.413 1.25681C219.111 1.33775 218.82 1.45442 218.546 1.60432C218.27 1.75235 218.015 1.93918 217.792 2.15913C217.567 2.38278 217.374 2.63751 217.219 2.91426C217.062 3.19028 216.941 3.48459 216.857 3.79045C216.698 4.38267 216.698 5.00606 216.855 5.59858C216.935 5.89384 217.053 6.18387 217.211 6.46606C217.368 6.74652 217.557 6.99736 217.775 7.2151C217.994 7.43458 218.247 7.62358 218.528 7.77948C218.81 7.93626 219.101 8.05558 219.396 8.13397C219.988 8.29241 220.61 8.29241 221.202 8.13397C221.498 8.05558 221.789 7.93626 222.072 7.77948C222.28 7.66365 222.47 7.53126 222.642 7.38319H221.323L221.266 7.28129L220.836 6.51832C220.701 6.27325 220.552 6.03598 220.391 5.80761C220.268 5.6369 220.162 5.51932 220.076 5.45661L220.07 5.45226C220.012 5.40975 219.947 5.37924 219.877 5.36255C219.775 5.33752 219.669 5.32581 219.564 5.32771H219.305V7.38319H218.125V2.14694H219.989C220.276 2.14694 220.531 2.15826 220.746 2.1809C220.931 2.19737 221.114 2.23417 221.291 2.29065H221.292C221.579 2.3915 221.827 2.58166 221.998 2.83326L221.999 2.83587C222.085 2.9639 222.151 3.09716 222.193 3.23129C222.238 3.36977 222.26 3.51174 222.26 3.65545C222.26 3.85665 222.222 4.04739 222.149 4.22681C222.073 4.40905 221.963 4.57517 221.824 4.71629C221.651 4.89656 221.438 5.03302 221.202 5.11432L221.225 5.13697C221.33 5.23887 221.445 5.37474 221.571 5.54284H221.571C221.689 5.70135 221.824 5.89819 221.971 6.13336H221.972L222.563 7.0801L222.714 7.32048L222.823 7.21597C223.041 6.99736 223.229 6.74565 223.385 6.46606C223.542 6.18474 223.659 5.89558 223.738 5.60032C223.896 5.00725 223.895 4.38322 223.736 3.79045C223.654 3.48448 223.533 3.1901 223.377 2.91426C223.223 2.63718 223.031 2.38323 222.806 2.16L222.805 2.15913C222.582 1.93876 222.327 1.75189 222.05 1.60432C221.775 1.45454 221.483 1.33788 221.181 1.25681C220.893 1.18053 220.597 1.14189 220.3 1.14184V1.14097ZM219.305 4.26339H220.056C220.267 4.26339 220.444 4.24771 220.583 4.21723C220.682 4.20052 220.776 4.16182 220.857 4.104C220.913 4.06034 220.958 4.00429 220.989 3.94026C221.039 3.82587 221.047 3.69763 221.012 3.57794C220.997 3.53252 220.976 3.4894 220.95 3.4499H220.949C220.921 3.41018 220.886 3.37494 220.848 3.34539C220.805 3.31332 220.758 3.28724 220.708 3.26787C220.627 3.24047 220.542 3.22349 220.457 3.21736C220.303 3.20385 220.149 3.19775 219.995 3.19906H219.305V4.26339Z" fill="#2B2A29"/>
<path d="M90.0684 45.1346V41.1325H90.814V42.8605C91.0067 42.8605 91.1541 42.8335 91.2561 42.7787C91.3591 42.7229 91.4707 42.5993 91.5919 42.4059L91.9974 41.7527C92.1518 41.5001 92.3105 41.3329 92.4736 41.2527C92.6367 41.1726 92.8695 41.1325 93.173 41.1325H93.4547V41.555H93.2977C93.016 41.555 92.7841 41.7004 92.6018 41.9931L92.287 42.5052C92.0942 42.8414 91.8954 43.0347 91.6913 43.0844C91.8457 43.1227 92.1492 43.3927 92.6018 43.8944L93.7198 45.1346H92.8006L91.7079 43.8944C91.5794 43.7414 91.432 43.6054 91.2692 43.4894C91.1367 43.4014 91.0486 43.3544 91.0041 43.3492C90.941 43.3426 90.8775 43.3397 90.814 43.3405V45.1346H90.0684ZM97.7768 42.4808V43.87C97.7768 44.1182 97.7463 44.3273 97.6852 44.498C97.6386 44.6458 97.5596 44.7815 97.4541 44.8951C97.3599 44.9892 97.2256 45.0606 97.0521 45.1103C96.89 45.1577 96.7234 45.1881 96.555 45.2008C96.398 45.2122 96.1896 45.2183 95.9306 45.2183C95.672 45.2214 95.4134 45.2101 95.1561 45.1843C94.9639 45.1602 94.7767 45.1058 94.6015 45.0232C94.4213 44.9427 94.2789 44.7961 94.2038 44.6138C94.1245 44.4265 94.0844 44.1783 94.0844 43.87V42.4808C94.0844 42.216 94.1157 41.9931 94.1794 41.8102C94.2422 41.629 94.3198 41.4879 94.4114 41.3895C94.5219 41.2786 94.6606 41.2 94.8125 41.1622C94.9896 41.1099 95.1535 41.0777 95.3053 41.0664C95.457 41.0559 95.6655 41.0507 95.9306 41.0507C96.1948 41.0507 96.4032 41.0559 96.555 41.0664C96.7076 41.0777 96.8716 41.1099 97.0477 41.1622C97.2248 41.2144 97.3582 41.2902 97.4498 41.3886C97.5404 41.4888 97.6181 41.629 97.6817 41.811C97.7445 41.9931 97.7768 42.216 97.7768 42.4808ZM97.0146 43.9771V42.3571C97.0146 41.987 96.9405 41.7588 96.7913 41.6699C96.6422 41.5828 96.3553 41.5375 95.9306 41.5375C95.505 41.5375 95.2181 41.582 95.0689 41.6699C94.9198 41.7588 94.8457 41.987 94.8457 42.3563V43.9771C94.8457 44.1539 94.8649 44.2942 94.9032 44.3987C94.9425 44.5032 95.014 44.5798 95.1187 44.626C95.2233 44.673 95.3314 44.7018 95.4413 44.7131C95.5521 44.7244 95.7152 44.7305 95.9306 44.7305C96.1451 44.7305 96.3082 44.7244 96.4189 44.7131C96.5288 44.7018 96.637 44.673 96.7416 44.626C96.7913 44.6052 96.836 44.5743 96.8731 44.5353C96.9102 44.4964 96.9388 44.4501 96.957 44.3995C96.9954 44.295 97.0146 44.1539 97.0146 43.9771ZM102.396 45.1355H101.651V43.3413H99.6806V45.1355H98.9358V41.1325H99.6806V42.7952H101.651V41.1325H102.396V45.1355ZM106.586 45.1015C106.163 45.1843 105.733 45.2231 105.302 45.2174C105.06 45.2174 104.87 45.213 104.735 45.2052C104.578 45.1931 104.423 45.1653 104.271 45.1224C104.124 45.0896 103.988 45.0201 103.874 44.9204C103.769 44.8102 103.689 44.679 103.638 44.5354C103.566 44.3352 103.533 44.1235 103.539 43.9109V42.439C103.539 42.2186 103.56 42.0288 103.601 41.8685C103.642 41.7091 103.707 41.5794 103.796 41.4801C103.876 41.3882 103.967 41.3076 104.069 41.2405C104.162 41.1796 104.291 41.1369 104.454 41.1116C104.617 41.0873 104.761 41.0707 104.884 41.0629C105.051 41.0536 105.218 41.0495 105.385 41.0507C105.766 41.0507 106.147 41.0916 106.528 41.1744V41.7196C106.125 41.613 105.711 41.5574 105.294 41.5541C104.87 41.5541 104.597 41.5985 104.479 41.6865C104.36 41.7753 104.301 41.9905 104.301 42.331V43.9858C104.301 44.2776 104.37 44.4692 104.508 44.5607C104.645 44.6513 104.936 44.6965 105.377 44.6965C105.769 44.6965 106.172 44.6443 106.586 44.5398V45.1015ZM110.965 41.6786H109.401V45.1346H108.655V41.6786H107.083V41.1325H110.965V41.6786ZM115.461 42.1838V43.8282C115.461 44.0712 115.425 44.2811 115.354 44.457C115.296 44.6122 115.204 44.7523 115.084 44.8664C114.977 44.9622 114.835 45.038 114.658 45.0928C114.497 45.1452 114.33 45.1803 114.162 45.1974C113.974 45.2122 113.786 45.2189 113.598 45.2174C113.378 45.2174 113.162 45.1904 112.953 45.1346C112.743 45.0798 112.61 44.9944 112.555 44.8786V46.7712H111.81V41.1317H112.555V41.5619C112.616 41.2205 113.072 41.0498 113.921 41.0498C114.456 41.0498 114.847 41.1613 115.093 41.3843C115.339 41.6072 115.461 41.8737 115.461 42.1821V42.1838ZM114.7 43.9196V42.4477C114.7 42.0784 114.62 41.8424 114.459 41.7405C114.299 41.6386 114.015 41.5881 113.607 41.5881C113.193 41.5881 112.908 41.6386 112.75 41.7405C112.593 41.8424 112.514 42.0784 112.514 42.4477V43.9196C112.514 44.2558 112.595 44.4718 112.758 44.5685C112.921 44.6643 113.207 44.7131 113.615 44.7131C114.024 44.7131 114.306 44.6652 114.463 44.5685C114.621 44.4727 114.7 44.255 114.7 43.9196ZM119.717 41.1325L117.73 46.7721H116.952L117.556 45.193L116.008 41.1325H116.819L117.937 44.3987H117.954L118.963 41.1325H119.717ZM120.404 45.1346V41.1325H121.15V42.8605C121.342 42.8605 121.491 42.8335 121.593 42.7787C121.695 42.7229 121.806 42.5993 121.928 42.4059L122.333 41.7527C122.488 41.5001 122.646 41.3329 122.809 41.2527C122.972 41.1726 123.205 41.1325 123.509 41.1325H123.79V41.555H123.633C123.352 41.555 123.12 41.7004 122.938 41.9931L122.623 42.5052C122.43 42.8414 122.231 43.0347 122.027 43.0844C122.181 43.1227 122.485 43.3927 122.938 43.8944L124.056 45.1346H123.136L122.044 43.8944C121.915 43.7412 121.768 43.6051 121.605 43.4894C121.472 43.4014 121.384 43.3544 121.34 43.3492C121.277 43.3426 121.213 43.3397 121.15 43.3405V45.1346H120.404ZM128.004 41.6786H126.44V45.1346H125.694V41.6786H124.122V41.1325H128.004V41.6786ZM129.818 45.1346H128.849V41.1325H129.553V44.3656L131.54 41.1325H132.509V45.1346H131.805V41.8276L129.818 45.1346ZM137.402 43.8369V44.0764C137.402 44.4736 137.276 44.7488 137.025 44.9038C136.774 45.058 136.32 45.1346 135.663 45.1346H133.85V41.1325H135.606C135.959 41.1325 136.244 41.1534 136.462 41.1953C136.68 41.2362 136.838 41.3067 136.934 41.4052C137.02 41.4873 137.084 41.5897 137.12 41.703C137.148 41.8023 137.161 41.9382 137.161 42.1089V42.2491C137.161 42.4695 137.104 42.6306 136.988 42.7325C136.872 42.8344 136.69 42.9137 136.441 42.9685V43.0016C137.082 43.1062 137.402 43.3849 137.402 43.8369ZM136.45 42.2239V42.1751C136.45 41.9652 136.4 41.825 136.301 41.7527C136.201 41.6813 135.983 41.6455 135.647 41.6455H134.595V42.8196H135.671C136.002 42.8196 136.215 42.7787 136.308 42.6959C136.403 42.6132 136.45 42.4547 136.45 42.2239ZM136.64 44.052V43.7873C136.641 43.7192 136.626 43.6518 136.595 43.5912C136.564 43.5305 136.518 43.4785 136.462 43.4397C136.343 43.3518 136.104 43.3074 135.746 43.3074H134.595V44.5973H135.704C136.09 44.5973 136.343 44.5589 136.462 44.4814C136.581 44.4048 136.64 44.2611 136.64 44.052ZM142.005 45.1346H141.26V43.3405H139.289V45.1346H138.545V41.1325H139.289V42.7952H141.26V41.1325H142.005V45.1346ZM146.46 45.1346H145.739V44.7549C145.678 45.0632 145.275 45.2174 144.531 45.2174C143.979 45.2174 143.596 45.1338 143.384 44.9648C143.171 44.7976 143.065 44.457 143.065 43.944C143.065 43.4981 143.164 43.1906 143.363 43.0225C143.562 42.8544 143.945 42.77 144.514 42.77H145.714V42.1333C145.714 41.9129 145.647 41.764 145.512 41.6865C145.376 41.6098 145.121 41.5706 144.745 41.5706C144.337 41.5706 143.879 41.6037 143.372 41.6699V41.1247C143.864 41.0778 144.358 41.0531 144.853 41.0507C145.527 41.0507 145.963 41.1317 146.161 41.2945C146.36 41.4565 146.46 41.7945 146.46 42.3075V45.1346ZM145.714 44.3412V43.2333H144.564C144.221 43.2333 144.007 43.2769 143.922 43.3657C143.836 43.4528 143.794 43.6549 143.794 43.9693C143.794 44.2558 143.839 44.457 143.93 44.5729C144.021 44.6887 144.213 44.7462 144.505 44.7462H144.654C144.798 44.7462 144.918 44.7436 145.015 44.7375C145.111 44.7323 145.22 44.7174 145.342 44.6922C145.443 44.6764 145.539 44.6337 145.619 44.5685C145.65 44.5398 145.675 44.5046 145.692 44.4653C145.708 44.4261 145.716 44.3837 145.714 44.3412ZM148.256 45.1346H147.271L148.827 43.4319C148.01 43.4319 147.602 43.1532 147.602 42.5958V42.1664C147.602 41.7474 147.695 41.4705 147.883 41.3355C148.071 41.2005 148.441 41.1325 148.993 41.1325H151.046V45.1346H150.301V43.5312H149.631L148.256 45.1346ZM148.356 42.2326V42.3484C148.356 42.6402 148.392 42.8248 148.467 42.9024C148.541 42.979 148.683 43.0182 148.894 43.0182H150.301V41.6455H149.067C148.769 41.6455 148.576 41.6856 148.488 41.7657C148.399 41.845 148.356 42.0009 148.356 42.2326ZM157.835 42.4808V43.87C157.835 44.1182 157.805 44.3273 157.745 44.498C157.683 44.6695 157.606 44.8011 157.513 44.8951C157.418 44.9892 157.285 45.0606 157.111 45.1103C156.949 45.1576 156.782 45.188 156.614 45.2008C156.456 45.2122 156.248 45.2183 155.989 45.2183C155.73 45.2214 155.472 45.2101 155.215 45.1843C155.022 45.1602 154.835 45.1058 154.66 45.0232C154.48 44.9427 154.337 44.7961 154.262 44.6138C154.183 44.4265 154.143 44.1783 154.143 43.87V42.4808C154.143 42.216 154.174 41.9931 154.238 41.8102C154.286 41.6558 154.365 41.5127 154.47 41.3895C154.58 41.2788 154.719 41.2002 154.871 41.1622C155.048 41.1099 155.212 41.0777 155.364 41.0664C155.515 41.0559 155.724 41.0507 155.989 41.0507C156.254 41.0507 156.463 41.0559 156.614 41.0664C156.766 41.0777 156.93 41.1099 157.106 41.1622C157.258 41.1998 157.397 41.2781 157.508 41.3886C157.599 41.4888 157.676 41.629 157.74 41.811C157.804 41.9931 157.835 42.216 157.835 42.4808ZM157.073 43.9771V42.3571C157.073 41.987 156.999 41.7588 156.85 41.6699C156.701 41.5828 156.414 41.5375 155.989 41.5375C155.564 41.5375 155.277 41.582 155.128 41.6699C154.979 41.7588 154.904 41.987 154.904 42.3563V43.9771C154.904 44.1539 154.923 44.2942 154.963 44.3987C155.001 44.5032 155.072 44.5798 155.177 44.626C155.283 44.673 155.39 44.7018 155.501 44.7131C155.611 44.7244 155.774 44.7305 155.989 44.7305C156.204 44.7305 156.367 44.7244 156.477 44.7131C156.589 44.7017 156.698 44.6723 156.8 44.626C156.85 44.6052 156.894 44.5743 156.932 44.5353C156.969 44.4964 156.997 44.4501 157.015 44.3995C157.054 44.295 157.073 44.1539 157.073 43.9771ZM161.577 41.6786H159.789V45.1346H159.044V41.1325H161.577V41.6786ZM165.933 45.1346H165.187V43.3405H163.217V45.1346H162.471V41.1325H163.217V42.7952H165.187V41.1325H165.933V45.1346ZM170.519 43.2995H167.829V43.9031C167.829 44.1835 167.929 44.3839 168.13 44.5023C168.332 44.6208 168.637 44.68 169.045 44.68C169.404 44.68 169.843 44.6138 170.362 44.4814V45.0528C169.853 45.1619 169.334 45.2174 168.814 45.2183C168.3 45.2183 167.882 45.1198 167.559 44.9239C167.236 44.7288 167.075 44.4187 167.075 43.9937V42.4146C167.075 41.9243 167.215 41.5741 167.497 41.3642C167.779 41.1552 168.229 41.0507 168.846 41.0507C169.426 41.0507 169.85 41.1508 170.118 41.352C170.386 41.5524 170.519 41.9068 170.519 42.4146V43.2995ZM169.774 42.8118V42.1829C169.774 41.9399 169.701 41.7736 169.554 41.683C169.409 41.5915 169.167 41.5463 168.831 41.5463C168.488 41.5463 168.236 41.5889 168.073 41.6743C167.91 41.7596 167.829 41.9295 167.829 42.1829V42.8118H169.774ZM174.659 43.6958V44.1095C174.663 44.2879 174.622 44.4645 174.539 44.6225C174.47 44.7532 174.371 44.8653 174.249 44.9491C174.112 45.0332 173.963 45.0933 173.806 45.1268C173.645 45.1675 173.48 45.1938 173.314 45.2052C173.167 45.2139 172.99 45.2174 172.779 45.2174C172.366 45.2174 171.872 45.1704 171.298 45.0772V44.4901C171.888 44.6121 172.382 44.6722 172.779 44.6722C172.94 44.6722 173.068 44.6678 173.165 44.66C173.262 44.6513 173.373 44.6295 173.5 44.5929C173.615 44.5654 173.716 44.4981 173.786 44.403C173.853 44.2983 173.886 44.1754 173.881 44.0512V43.7951C173.885 43.6918 173.851 43.5906 173.786 43.5103C173.713 43.4309 173.618 43.3761 173.513 43.3535C173.408 43.3259 173.301 43.3063 173.194 43.2952C173.081 43.2863 172.968 43.2822 172.854 43.283H171.985V42.77H172.713C172.933 42.7796 173.154 42.7558 173.367 42.6994C173.476 42.6768 173.574 42.6204 173.649 42.5383C173.717 42.4547 173.753 42.3491 173.748 42.2413V41.9931C173.748 41.7056 173.417 41.5628 172.755 41.5628C172.236 41.5628 171.786 41.5959 171.405 41.6621V41.1247C171.85 41.0735 172.298 41.0488 172.746 41.0507C173.144 41.0507 173.453 41.069 173.673 41.1082C173.95 41.1517 174.156 41.2379 174.295 41.3642C174.433 41.4914 174.502 41.6865 174.502 41.9513V42.2735C174.505 42.3574 174.488 42.4408 174.452 42.5171C174.417 42.5933 174.364 42.6602 174.299 42.7125C174.156 42.8257 173.986 42.8996 173.806 42.9267V42.9598C174.374 43.0487 174.659 43.2925 174.659 43.6958ZM178.964 45.1346H178.244V44.7549C178.183 45.0632 177.78 45.2174 177.035 45.2174C176.483 45.2174 176.101 45.1338 175.888 44.9648C175.676 44.7976 175.569 44.457 175.569 43.944C175.569 43.4981 175.669 43.1906 175.867 43.0225C176.066 42.8544 176.45 42.77 177.019 42.77H178.219V42.1333C178.219 41.9129 178.151 41.764 178.016 41.6865C177.881 41.6098 177.626 41.5706 177.251 41.5706C176.842 41.5706 176.384 41.6037 175.876 41.6699V41.1247C176.369 41.0778 176.863 41.0531 177.358 41.0507C178.031 41.0507 178.467 41.1317 178.666 41.2945C178.865 41.4565 178.964 41.7945 178.964 42.3075V45.1346ZM178.219 44.3412V43.2333H177.068C176.726 43.2333 176.512 43.2769 176.426 43.3657C176.341 43.4528 176.298 43.6549 176.298 43.9693C176.298 44.2558 176.344 44.457 176.435 44.5729C176.526 44.6887 176.718 44.7462 177.01 44.7462H177.159C177.303 44.7462 177.423 44.7436 177.519 44.7375C177.616 44.7323 177.725 44.7174 177.846 44.6922C177.948 44.6768 178.044 44.634 178.124 44.5685C178.155 44.5398 178.18 44.5046 178.196 44.4653C178.213 44.4261 178.22 44.3837 178.219 44.3412ZM184.958 45.1346H180.306V41.1325H181.05V44.5894H182.616V41.1325H183.368V44.5894H184.934V41.1325H185.679V46.2425H184.958V45.1346ZM187.989 45.1346H187.02V41.1325H187.724V44.3656L189.711 41.1325H190.68V45.1346H189.976V41.8276L187.989 45.1346ZM195.407 41.6786H193.842V45.1346H193.097V41.6786H191.524V41.1325H195.407V41.6786ZM199.414 45.1346H198.694V44.7549C198.633 45.0632 198.231 45.2174 197.485 45.2174C196.933 45.2174 196.551 45.1338 196.338 44.9648C196.126 44.7976 196.02 44.457 196.02 43.944C196.02 43.4981 196.119 43.1906 196.318 43.0225C196.516 42.8544 196.9 42.77 197.468 42.77H198.669V42.1333C198.669 41.9129 198.601 41.764 198.466 41.6865C198.331 41.6098 198.076 41.5706 197.7 41.5706C197.292 41.5706 196.833 41.6037 196.326 41.6699V41.1247C196.818 41.0778 197.313 41.0531 197.808 41.0507C198.482 41.0507 198.918 41.1317 199.117 41.2945C199.315 41.4565 199.414 41.7945 199.414 42.3075V45.1346ZM198.669 44.3412V43.2333H197.518C197.176 43.2333 196.963 43.2769 196.876 43.3657C196.791 43.4528 196.748 43.6549 196.748 43.9693C196.748 44.2558 196.794 44.457 196.885 44.5729C196.976 44.6887 197.167 44.7462 197.461 44.7462H197.61C197.753 44.7462 197.873 44.7436 197.97 44.7375C198.066 44.7323 198.175 44.7174 198.297 44.6922C198.399 44.6764 198.494 44.6337 198.574 44.5685C198.605 44.5397 198.63 44.5044 198.646 44.4652C198.663 44.426 198.671 44.3837 198.669 44.3412ZM93.5375 52.2147H92.7919V50.4205H90.8218V52.2147H90.0771V48.2126H90.8218V49.8744H92.7919V48.2126H93.5375V52.2147ZM98.1239 50.3787H95.4335V50.9823C95.4335 51.2636 95.5338 51.4631 95.7361 51.5815C95.9367 51.7 96.2419 51.7592 96.65 51.7592C97.0093 51.7592 97.448 51.6939 97.9669 51.5615V52.132C97.4581 52.2411 96.9393 52.2966 96.4189 52.2975C95.9053 52.2975 95.4875 52.1991 95.1649 52.004C94.8413 51.808 94.68 51.4979 94.68 51.0738V49.4938C94.68 49.0035 94.8204 48.6534 95.1021 48.4434C95.3838 48.2344 95.8338 48.1299 96.4521 48.1299C97.0311 48.1299 97.455 48.2301 97.7227 48.4313C97.9905 48.6324 98.1239 48.9869 98.1239 49.4938V50.3787ZM97.3791 49.891V49.2622C97.3791 49.02 97.3059 48.8528 97.1593 48.7622C97.0137 48.6716 96.7721 48.6255 96.4355 48.6255C96.0928 48.6255 95.8407 48.669 95.6777 48.7535C95.5146 48.8397 95.4335 49.0087 95.4335 49.2622V49.891H97.3791ZM101.842 48.7587H100.053V52.2147H99.3082V48.2126H101.842V48.7587ZM106.28 49.56V50.9492C106.28 51.1975 106.249 51.4065 106.189 51.5781C106.128 51.7488 106.05 51.8812 105.957 51.9744C105.863 52.0684 105.729 52.1398 105.555 52.1895C105.393 52.2371 105.227 52.2677 105.059 52.2809C104.901 52.2914 104.692 52.2966 104.433 52.2966C104.175 52.3004 103.916 52.2896 103.659 52.2644C103.467 52.2403 103.28 52.1859 103.104 52.1033C102.924 52.0227 102.782 51.8762 102.707 51.6939C102.627 51.5058 102.587 51.2584 102.587 50.9492V49.56C102.587 49.2953 102.619 49.0723 102.682 48.8903C102.73 48.7356 102.809 48.5922 102.914 48.4687C103.025 48.358 103.164 48.2795 103.315 48.2414C103.492 48.1891 103.656 48.1569 103.808 48.1456C103.96 48.1351 104.168 48.1299 104.433 48.1299C104.699 48.1299 104.907 48.1351 105.059 48.1464C105.211 48.1569 105.374 48.1891 105.551 48.2414C105.703 48.2793 105.842 48.3579 105.953 48.4687C106.043 48.568 106.121 48.7082 106.185 48.8903C106.247 49.0723 106.28 49.2944 106.28 49.56ZM105.517 51.0564V49.4364C105.517 49.0671 105.443 48.838 105.294 48.75C105.145 48.6612 104.858 48.6176 104.433 48.6176C104.009 48.6176 103.721 48.6612 103.573 48.75C103.424 48.838 103.349 49.0671 103.349 49.4364V51.0564C103.349 51.2332 103.368 51.3734 103.407 51.4788C103.425 51.5294 103.453 51.5758 103.49 51.6148C103.527 51.6538 103.572 51.6846 103.622 51.7052C103.727 51.7531 103.834 51.7819 103.945 51.7923C104.055 51.8036 104.218 51.8097 104.433 51.8097C104.649 51.8097 104.811 51.8036 104.922 51.7923C105.033 51.7819 105.14 51.7531 105.245 51.7052C105.294 51.6844 105.339 51.6536 105.376 51.6146C105.413 51.5756 105.442 51.5294 105.46 51.4788C105.498 51.3743 105.517 51.2323 105.517 51.0564ZM111.09 49.2622V50.9083C111.095 51.1226 111.058 51.3359 110.982 51.5363C110.925 51.6912 110.833 51.8312 110.713 51.9456C110.589 52.0507 110.444 52.1282 110.287 52.1729C110.125 52.225 109.959 52.2598 109.79 52.2766C109.603 52.2914 109.415 52.2981 109.227 52.2966C109.007 52.2966 108.791 52.2696 108.581 52.2147C108.372 52.159 108.239 52.0736 108.184 51.9578V53.8513H107.439V48.2126H108.184V48.642C108.245 48.3006 108.7 48.1299 109.55 48.1299C110.086 48.1299 110.476 48.2414 110.721 48.4644C110.967 48.6873 111.09 48.9538 111.09 49.2622ZM110.328 50.9989V49.5269C110.328 49.1576 110.249 48.9225 110.088 48.8197C109.928 48.7178 109.643 48.6673 109.235 48.6673C108.821 48.6673 108.536 48.7178 108.379 48.8197C108.221 48.9225 108.142 49.1576 108.142 49.5269V50.9989C108.142 51.3351 108.224 51.5511 108.387 51.6477C108.55 51.7444 108.835 51.7923 109.244 51.7923C109.652 51.7923 109.935 51.7444 110.092 51.6477C110.249 51.5519 110.328 51.3351 110.328 50.9989ZM113.027 52.2147H112.282V48.2126H113.027V50.0155H114.071V49.56C114.071 49.2953 114.102 49.0723 114.166 48.8903C114.214 48.7356 114.293 48.5922 114.398 48.4687C114.509 48.358 114.647 48.2795 114.799 48.2414C114.976 48.1891 115.14 48.1569 115.292 48.1456C115.444 48.1351 115.652 48.1299 115.917 48.1299C116.182 48.1299 116.391 48.1351 116.542 48.1464C116.694 48.1569 116.858 48.1891 117.034 48.2414C117.211 48.2936 117.345 48.3694 117.436 48.4687C117.527 48.568 117.605 48.7082 117.668 48.8903C117.731 49.0723 117.763 49.2953 117.763 49.5609V50.9492C117.763 51.1975 117.733 51.4065 117.673 51.5781C117.612 51.7488 117.534 51.8812 117.441 51.9744C117.347 52.0684 117.213 52.1398 117.039 52.1895C116.877 52.2371 116.711 52.2677 116.542 52.2809C116.385 52.2914 116.176 52.2966 115.917 52.2966C115.659 52.3004 115.4 52.2896 115.143 52.2644C114.951 52.2403 114.763 52.1859 114.588 52.1033C114.408 52.0227 114.266 51.8762 114.19 51.6939C114.111 51.5058 114.071 51.2584 114.071 50.9492V50.4702H113.027V52.2147ZM117.001 51.0564V49.4364C117.001 49.0671 116.927 48.838 116.778 48.75C116.629 48.6612 116.342 48.6176 115.917 48.6176C115.492 48.6176 115.205 48.6612 115.056 48.75C114.906 48.838 114.832 49.0671 114.832 49.4364V51.0564C114.832 51.2332 114.851 51.3734 114.891 51.4788C114.909 51.5294 114.937 51.5758 114.974 51.6148C115.011 51.6538 115.056 51.6846 115.105 51.7052C115.211 51.7531 115.318 51.7819 115.429 51.7923C115.539 51.8036 115.702 51.8097 115.917 51.8097C116.133 51.8097 116.295 51.8036 116.406 51.7923C116.515 51.7819 116.624 51.7531 116.728 51.7052C116.778 51.6844 116.823 51.6536 116.86 51.6146C116.897 51.5756 116.925 51.5294 116.944 51.4788C116.982 51.3743 117.001 51.2323 117.001 51.0564ZM122.375 52.2147H121.647V50.3787C121.569 50.7594 121.124 50.9492 120.313 50.9492C119.783 50.9492 119.42 50.8534 119.221 50.6635C119.022 50.4737 118.922 50.1854 118.922 49.7995V48.2126H119.667V49.7586C119.667 49.8579 119.676 49.9406 119.692 50.0068C119.713 50.0805 119.748 50.1492 119.796 50.2089C119.849 50.2786 119.937 50.3308 120.061 50.3657C120.185 50.4023 120.341 50.4205 120.529 50.4205C120.965 50.4205 121.257 50.3735 121.406 50.2795C121.555 50.1854 121.629 50.0121 121.629 49.7586V48.2126H122.375V52.2147ZM126.83 52.2147H126.109V51.8341C126.048 52.1425 125.645 52.2975 124.901 52.2975C124.348 52.2975 123.966 52.213 123.754 52.0449C123.541 51.8768 123.435 51.5363 123.435 51.0241C123.435 50.5773 123.534 50.2699 123.733 50.1009C123.932 49.9337 124.315 49.8492 124.883 49.8492H126.084V49.2134C126.084 48.9922 126.017 48.8432 125.881 48.7666C125.746 48.6891 125.491 48.6507 125.115 48.6507C124.707 48.6507 124.249 48.6838 123.741 48.75V48.2039C124.234 48.157 124.728 48.1323 125.223 48.1299C125.897 48.1299 126.333 48.2109 126.531 48.3738C126.73 48.5358 126.83 48.8737 126.83 49.3867V52.2147ZM126.084 51.4204V50.3125H124.934C124.591 50.3125 124.377 50.3561 124.292 50.4449C124.206 50.5329 124.163 50.7341 124.163 51.0485C124.163 51.3359 124.209 51.5363 124.3 51.6521C124.391 51.7679 124.583 51.8263 124.875 51.8263H125.024C125.167 51.8263 125.288 51.8228 125.385 51.8176C125.481 51.8124 125.59 51.7967 125.712 51.7723C125.814 51.7563 125.909 51.7133 125.989 51.6477C126.02 51.6191 126.045 51.5841 126.061 51.545C126.078 51.5059 126.086 51.4637 126.084 51.4213V51.4204ZM128.626 52.2147H127.641L129.197 50.5111C128.38 50.5111 127.972 50.2324 127.972 49.6759V49.2456C127.972 48.8275 128.065 48.5497 128.253 48.4147C128.441 48.2797 128.811 48.2126 129.363 48.2126H131.416V52.2147H130.67V50.6104H130.001L128.626 52.2147ZM128.726 49.3118V49.4276C128.726 49.7203 128.762 49.9049 128.837 49.9816C128.911 50.0591 129.054 50.0974 129.264 50.0974H130.67V48.7248H129.437C129.139 48.7248 128.946 48.7648 128.857 48.845C128.769 48.9251 128.726 49.0801 128.726 49.3118ZM138.097 48.7579H136.533V52.2147H135.787V48.757H134.215V48.2118H138.097V48.7579ZM142.237 50.3787H139.547V50.9823C139.547 51.2636 139.647 51.4631 139.848 51.5815C140.05 51.7 140.355 51.7592 140.763 51.7592C141.122 51.7592 141.561 51.6939 142.08 51.5615V52.132C141.571 52.2412 141.052 52.2966 140.531 52.2975C140.018 52.2975 139.6 52.1991 139.277 52.004C138.954 51.808 138.793 51.4979 138.793 51.0738V49.4938C138.793 49.0035 138.933 48.6534 139.215 48.4434C139.497 48.2344 139.947 48.1299 140.564 48.1299C141.144 48.1299 141.568 48.2301 141.836 48.4313C142.104 48.6324 142.237 48.9869 142.237 49.4938V50.3787ZM141.492 49.891V49.2622C141.492 49.02 141.419 48.8528 141.272 48.7622C141.127 48.6716 140.885 48.6255 140.548 48.6255C140.206 48.6255 139.954 48.669 139.791 48.7535C139.628 48.8397 139.547 49.0087 139.547 49.2622V49.891H141.492ZM146.808 52.2147H146.062V48.757H144.166V52.2139H143.421V48.2118H146.808V52.2147ZM148.381 51.1069V48.2126H151.585V52.2147H150.848V48.757H149.118V51.0476C149.118 51.3176 149.088 51.5371 149.031 51.7052C148.984 51.8586 148.884 51.9903 148.749 52.0771C148.624 52.1552 148.484 52.2084 148.339 52.2339C148.15 52.2619 147.959 52.2744 147.768 52.2714C147.657 52.2714 147.569 52.2687 147.503 52.2626V51.801C147.856 51.801 148.09 51.7549 148.206 51.6634C148.322 51.5728 148.381 51.3864 148.381 51.106V51.1069ZM156.42 49.56V50.9492C156.42 51.1975 156.389 51.4065 156.329 51.5781C156.268 51.7488 156.191 51.8812 156.097 51.9744C156.003 52.0684 155.87 52.1398 155.696 52.1895C155.522 52.2391 155.356 52.2696 155.199 52.2809C154.991 52.2931 154.782 52.2984 154.574 52.2966C154.315 52.3004 154.057 52.2896 153.799 52.2644C153.607 52.2403 153.42 52.1859 153.245 52.1033C153.064 52.0229 152.922 51.8763 152.848 51.6939C152.767 51.5058 152.727 51.2584 152.727 50.9492V49.56C152.727 49.2953 152.759 49.0723 152.822 48.8903C152.871 48.7356 152.949 48.5922 153.054 48.4687C153.165 48.358 153.304 48.2795 153.456 48.2414C153.633 48.1891 153.797 48.1569 153.948 48.1456C154.1 48.1351 154.308 48.1299 154.574 48.1299C154.839 48.1299 155.047 48.1351 155.199 48.1464C155.351 48.1569 155.515 48.1891 155.692 48.2414C155.844 48.2794 155.982 48.358 156.093 48.4687C156.184 48.568 156.261 48.7082 156.325 48.8903C156.388 49.0723 156.42 49.2944 156.42 49.56ZM155.658 51.0564V49.4364C155.658 49.0671 155.583 48.838 155.434 48.75C155.285 48.6612 154.998 48.6176 154.574 48.6176C154.149 48.6176 153.862 48.6612 153.713 48.75C153.564 48.838 153.489 49.0671 153.489 49.4364V51.0564C153.489 51.2332 153.509 51.3734 153.547 51.4788C153.565 51.5295 153.594 51.5759 153.631 51.6149C153.668 51.6539 153.713 51.6847 153.763 51.7052C153.867 51.7531 153.974 51.7819 154.085 51.7923C154.196 51.8036 154.358 51.8097 154.574 51.8097C154.789 51.8097 154.952 51.8036 155.062 51.7923C155.173 51.7819 155.28 51.7531 155.385 51.7052C155.434 51.6846 155.479 51.6537 155.516 51.6147C155.553 51.5757 155.582 51.5294 155.6 51.4788C155.639 51.3743 155.658 51.2323 155.658 51.0564ZM159.566 50.1471H157.265V49.5522H159.566V50.1471ZM165.453 50.7759V51.1887C165.453 51.3873 165.413 51.5589 165.333 51.7026C165.263 51.8327 165.164 51.9443 165.043 52.0284C164.907 52.1127 164.757 52.1728 164.6 52.206C164.418 52.2496 164.254 52.2757 164.107 52.2844C163.961 52.2931 163.783 52.2966 163.573 52.2966C163.076 52.2894 162.58 52.2428 162.091 52.1573V51.5694C162.681 51.6913 163.176 51.7514 163.573 51.7514C163.733 51.7514 163.861 51.747 163.958 51.7392C164.055 51.7305 164.167 51.7087 164.293 51.673C164.408 51.6453 164.509 51.5777 164.579 51.4823C164.646 51.3779 164.68 51.2553 164.674 51.1313V50.8752C164.679 50.7715 164.645 50.6699 164.579 50.5895C164.507 50.5101 164.411 50.4552 164.306 50.4327C164.201 50.4048 164.095 50.3853 163.987 50.3744C163.874 50.3654 163.761 50.3614 163.648 50.3622H162.778V49.8492H163.507C163.639 49.8492 163.751 49.8457 163.842 49.837C163.95 49.8259 164.057 49.8067 164.161 49.7795C164.27 49.7569 164.368 49.7005 164.442 49.6184C164.511 49.5346 164.546 49.4286 164.542 49.3205V49.0723C164.542 48.7857 164.211 48.642 163.548 48.642C163.029 48.642 162.579 48.6751 162.199 48.7413V48.2039C162.644 48.1527 163.092 48.1279 163.54 48.1299C163.937 48.1299 164.247 48.1491 164.467 48.1874C164.743 48.2309 164.951 48.3172 165.088 48.4434C165.226 48.5706 165.295 48.7657 165.295 49.0314V49.3536C165.298 49.4373 165.281 49.5205 165.246 49.5966C165.211 49.6727 165.158 49.7395 165.093 49.7917C164.95 49.9052 164.78 49.9793 164.6 50.0068V50.0399C165.169 50.1279 165.453 50.3735 165.453 50.7759ZM170.197 50.9161V51.1556C170.197 51.5528 170.072 51.8289 169.82 51.9831C169.569 52.1372 169.115 52.2147 168.458 52.2147H166.645V48.2126H168.4C168.753 48.2126 169.039 48.2335 169.257 48.2736C169.475 48.3154 169.633 48.386 169.729 48.4853C169.815 48.5674 169.879 48.6698 169.915 48.7831C169.942 48.8824 169.956 49.0174 169.956 49.1881V49.3284C169.956 49.5487 169.899 49.7107 169.783 49.8126C169.667 49.9145 169.485 49.9929 169.236 50.0478V50.0809C169.876 50.1854 170.197 50.4632 170.197 50.9161ZM169.245 49.304V49.2543C169.245 49.0453 169.195 48.9042 169.096 48.8328C168.996 48.7605 168.778 48.7248 168.442 48.7248H167.39V49.8988H168.466C168.797 49.8988 169.01 49.8579 169.104 49.7752C169.198 49.6924 169.245 49.5356 169.245 49.304ZM169.435 51.1313V50.8665C169.436 50.7985 169.421 50.7314 169.389 50.6709C169.358 50.6104 169.313 50.5585 169.257 50.5198C169.138 50.431 168.899 50.3875 168.541 50.3875H167.39V51.6765H168.499C168.886 51.6765 169.138 51.6382 169.257 51.5615C169.376 51.484 169.435 51.3403 169.435 51.1313ZM174.452 48.2126L172.465 53.8513H171.687L172.291 52.2722L170.743 48.2126H171.554L172.672 51.4788H172.689L173.699 48.2126H174.452ZM175.139 52.2147V48.2126H175.885V49.9406C176.078 49.9406 176.226 49.9128 176.328 49.8579C176.43 49.803 176.542 49.6785 176.663 49.486L177.068 48.8328C177.224 48.5785 177.381 48.4121 177.545 48.332C177.708 48.2527 177.94 48.2126 178.244 48.2126H178.526V48.6342H178.369C178.087 48.6342 177.855 48.7805 177.673 49.0723L177.359 49.5853C177.165 49.9215 176.966 50.114 176.762 50.1636C176.917 50.2019 177.22 50.4728 177.673 50.9736L178.791 52.2147H177.872L176.779 50.9745C176.651 50.821 176.503 50.6846 176.34 50.5686C176.208 50.4815 176.12 50.4336 176.075 50.4284C176.012 50.4218 175.948 50.4189 175.885 50.4197V52.2139L175.139 52.2147ZM182.848 49.56V50.9492C182.848 51.1975 182.817 51.4065 182.757 51.5781C182.696 51.7488 182.619 51.8812 182.525 51.9744C182.431 52.0684 182.297 52.1398 182.124 52.1895C181.949 52.2391 181.784 52.2696 181.627 52.2809C181.469 52.2914 181.261 52.2966 181.002 52.2966C180.743 52.3001 180.484 52.289 180.227 52.2635C180.035 52.2397 179.848 52.1856 179.672 52.1033C179.492 52.0229 179.35 51.8763 179.276 51.6939C179.195 51.5058 179.155 51.2584 179.155 50.9492V49.56C179.155 49.2953 179.187 49.0723 179.25 48.8903C179.298 48.7356 179.377 48.5922 179.482 48.4687C179.593 48.358 179.732 48.2795 179.883 48.2414C180.061 48.1891 180.224 48.1569 180.376 48.1456C180.528 48.1351 180.736 48.1299 181.002 48.1299C181.267 48.1299 181.475 48.1351 181.627 48.1464C181.779 48.1569 181.942 48.1891 182.12 48.2414C182.271 48.2794 182.41 48.358 182.521 48.4687C182.611 48.568 182.689 48.7082 182.753 48.8903C182.816 49.0723 182.848 49.2944 182.848 49.56ZM182.086 51.0564V49.4364C182.086 49.0671 182.011 48.838 181.862 48.75C181.713 48.6612 181.426 48.6176 181.002 48.6176C180.577 48.6176 180.29 48.6612 180.141 48.75C179.992 48.838 179.917 49.0671 179.917 49.4364V51.0564C179.917 51.2332 179.937 51.3734 179.975 51.4788C179.993 51.5295 180.021 51.5759 180.059 51.6149C180.096 51.6539 180.141 51.6847 180.19 51.7052C180.295 51.7531 180.402 51.7819 180.513 51.7923C180.624 51.8036 180.786 51.8097 181.002 51.8097C181.217 51.8097 181.38 51.8036 181.49 51.7923C181.601 51.7819 181.708 51.7531 181.813 51.7052C181.862 51.6846 181.907 51.6537 181.944 51.6147C181.981 51.5757 182.01 51.5294 182.028 51.4788C182.067 51.3743 182.086 51.2323 182.086 51.0564ZM184.976 52.2147H184.007V48.2126H184.711V51.4457L186.698 48.2126H187.667V52.2147H186.963V48.9068L184.976 52.2147ZM191.964 50.7759V51.1887C191.964 51.3873 191.924 51.5589 191.843 51.7026C191.774 51.8327 191.675 51.9444 191.554 52.0284C191.44 52.1033 191.293 52.1616 191.111 52.206C190.949 52.2468 190.784 52.273 190.618 52.2844C190.472 52.2931 190.294 52.2966 190.083 52.2966C189.67 52.2966 189.176 52.2504 188.602 52.1573V51.5694C189.192 51.6913 189.687 51.7514 190.083 51.7514C190.244 51.7514 190.372 51.747 190.469 51.7392C190.566 51.7305 190.677 51.7087 190.805 51.673C190.919 51.645 191.02 51.5775 191.09 51.4823C191.157 51.3779 191.19 51.2553 191.185 51.1313V50.8752C191.189 50.7715 191.156 50.6699 191.09 50.5895C191.017 50.5101 190.922 50.4553 190.817 50.4327C190.712 50.4049 190.605 50.3854 190.498 50.3744C190.385 50.3655 190.272 50.3614 190.158 50.3622H189.289V49.8492H190.018C190.15 49.8492 190.262 49.8448 190.353 49.837C190.445 49.8283 190.55 49.8091 190.672 49.7795C190.781 49.7566 190.879 49.7003 190.954 49.6184C191.022 49.5343 191.057 49.4285 191.052 49.3205V49.0723C191.052 48.7849 190.722 48.642 190.059 48.642C189.54 48.642 189.09 48.6751 188.71 48.7413V48.2039C189.123 48.1543 189.571 48.1299 190.051 48.1299C190.448 48.1299 190.758 48.1491 190.978 48.1874C191.254 48.2309 191.461 48.3172 191.599 48.4434C191.737 48.5706 191.806 48.7657 191.806 49.0314V49.3536C191.809 49.4373 191.792 49.5205 191.757 49.5966C191.722 49.6727 191.669 49.7395 191.604 49.7917C191.461 49.9051 191.291 49.9793 191.111 50.0068V50.0399C191.679 50.1279 191.964 50.3735 191.964 50.7759ZM196.649 49.56V50.9492C196.649 51.1975 196.619 51.4065 196.559 51.5781C196.498 51.7488 196.42 51.8812 196.327 51.9744C196.233 52.0684 196.099 52.1398 195.926 52.1895C195.751 52.2391 195.586 52.2696 195.429 52.2809C195.271 52.2914 195.063 52.2966 194.803 52.2966C194.545 52.3001 194.286 52.289 194.029 52.2635C193.837 52.2397 193.649 52.1856 193.474 52.1033C193.294 52.0229 193.152 51.8763 193.077 51.6939C192.997 51.5058 192.957 51.2584 192.957 50.9492V49.56C192.957 49.2953 192.988 49.0723 193.052 48.8903C193.1 48.7356 193.179 48.5922 193.284 48.4687C193.395 48.358 193.533 48.2795 193.685 48.2414C193.862 48.1891 194.026 48.1569 194.178 48.1456C194.33 48.1351 194.538 48.1299 194.803 48.1299C195.068 48.1299 195.277 48.1351 195.429 48.1464C195.58 48.1569 195.744 48.1891 195.921 48.2414C196.073 48.2794 196.212 48.358 196.322 48.4687C196.413 48.568 196.491 48.7082 196.554 48.8903C196.618 49.0723 196.649 49.2944 196.649 49.56ZM195.888 51.0564V49.4364C195.888 49.0671 195.813 48.838 195.664 48.75C195.515 48.6612 195.228 48.6176 194.803 48.6176C194.379 48.6176 194.091 48.6612 193.942 48.75C193.793 48.838 193.718 49.0671 193.718 49.4364V51.0564C193.718 51.2332 193.738 51.3734 193.777 51.4788C193.795 51.5295 193.823 51.5759 193.86 51.6149C193.897 51.6539 193.942 51.6847 193.992 51.7052C194.097 51.7531 194.204 51.7819 194.315 51.7923C194.426 51.8036 194.588 51.8097 194.803 51.8097C195.019 51.8097 195.182 51.8036 195.292 51.7923C195.402 51.7819 195.51 51.7531 195.614 51.7052C195.664 51.6846 195.709 51.6537 195.746 51.6147C195.783 51.5757 195.812 51.5294 195.83 51.4788C195.869 51.3743 195.888 51.2323 195.888 51.0564ZM198.04 51.1069V48.2126H201.245V52.2147H200.508V48.757H198.777V51.0476C198.777 51.3176 198.749 51.5371 198.69 51.7052C198.644 51.8585 198.544 51.9902 198.409 52.0771C198.284 52.1551 198.145 52.2083 197.999 52.2339C197.81 52.2619 197.619 52.2744 197.428 52.2714C197.317 52.2714 197.229 52.2687 197.163 52.2626V51.8002C197.516 51.8002 197.751 51.7549 197.867 51.6634C197.983 51.5728 198.04 51.3864 198.04 51.106V51.1069ZM203.041 52.2147H202.056L203.612 50.5111C202.796 50.5111 202.387 50.2324 202.387 49.675V49.2456C202.387 48.8275 202.481 48.5497 202.669 48.4147C202.856 48.2797 203.227 48.2126 203.778 48.2126H205.832V52.2147H205.086V50.6104H204.415L203.041 52.2147ZM203.14 49.3118V49.4276C203.14 49.7203 203.178 49.9049 203.252 49.9816C203.327 50.0591 203.469 50.0974 203.679 50.0974H205.086V48.7248H203.853C203.555 48.7248 203.361 48.7648 203.273 48.845C203.185 48.9251 203.14 49.0801 203.14 49.3118ZM210.692 53.3226H209.972V52.2147H207.223V48.2126H207.967V51.6686H209.946V48.2126H210.692V53.3226ZM213.002 52.2147H212.033V48.2126H212.737V51.4457L214.724 48.2126H215.692V52.2147H214.989V48.9068L213.002 52.2147ZM217.489 52.2147H216.504L218.06 50.5111C217.243 50.5111 216.835 50.2324 216.835 49.675V49.2456C216.835 48.8275 216.929 48.5497 217.117 48.4147C217.304 48.2797 217.674 48.2126 218.226 48.2126H220.279V52.2147H219.534V50.6104H218.863L217.489 52.2147ZM217.588 49.3118V49.4276C217.588 49.7203 217.626 49.9049 217.7 49.9816C217.774 50.0591 217.916 50.0974 218.126 50.0974H219.534V48.7248H218.3C218.003 48.7248 217.809 48.7648 217.721 48.845C217.632 48.9251 217.588 49.0801 217.588 49.3118Z" fill="#2B2A29"/>
</g>
<defs>
<clipPath id="clip0_2003_1937">
<rect width="225" height="54" fill="white"/>
</clipPath>
</defs>
</svg>
