<svg width="56" height="56" viewBox="0 0 56 56" fill="none" xmlns="http://www.w3.org/2000/svg">
<path d="M45.7791 8.94118L35.0853 22.2745C39.058 23.3726 42.2145 25.3072 44.5546 28.0784C46.9492 30.8497 48.1465 34.1438 48.1465 37.9608C48.1465 43.6078 46.1601 48.0262 42.1873 51.2157C38.3233 54.4052 33.507 56 27.7383 56C23.2213 56 19.2213 55.0066 15.7383 53.0196C12.2553 50.9804 9.72472 48.1046 8.14648 44.3922L17.7791 39.0588C19.1396 43.2941 22.4594 45.4118 27.7383 45.4118C30.6227 45.4118 32.8539 44.7581 34.4322 43.451C36.0649 42.0915 36.8812 40.2615 36.8812 37.9608C36.8812 35.7125 36.0649 33.9085 34.4322 32.549C32.8539 31.1895 30.6227 30.5098 27.7383 30.5098H25.2893L20.9628 24.2353L32.2281 10.1176H9.86077V0H45.7791V8.94118Z" fill="#B2A9A1"/>
</svg>
