<svg width="60" height="60" viewBox="0 0 60 60" fill="none" xmlns="http://www.w3.org/2000/svg">
<rect x="0.5" y="0.5" width="59" height="59" rx="29.5" stroke="#78706A"/>
<g clip-path="url(#clip0_2003_2069)">
<g clip-path="url(#clip1_2003_2069)">
<path d="M45 32.3115C45 30.614 44.0332 29.1285 42.5806 28.4115V20.8065C42.5806 17.6047 39.976 15 36.7742 15C33.5724 15 30.9677 17.6047 30.9677 20.8065V21.3784C30.3556 21.2739 29.7194 21.2627 29.0797 21.3619C29.0453 21.3673 29.0115 21.3765 28.9771 21.3823C29.0105 21.1926 29.0323 21.001 29.0323 20.8065V18.871C29.0323 18.1055 28.4371 17.4765 27.6847 17.4232C26.7063 15.9213 25.0229 15 23.2258 15C20.2911 15 17.9032 17.3879 17.9032 20.3226V20.8065C17.9032 21.9121 18.4553 22.9447 19.3548 23.5747V23.6023C19.3548 24.8216 19.9229 25.9094 20.8065 26.6192V27.6552L18.6392 28.0161C16.5305 28.3669 15 30.1737 15 32.3115V36.2903H23.5587C21.9111 36.9373 20.8065 38.519 20.8065 40.3374V45H39.1935V40.3374C39.1935 38.519 38.0889 36.9373 36.4413 36.2903H45V32.3115ZM31.9355 20.8065C31.9355 18.1384 34.1061 15.9677 36.7742 15.9677C39.4423 15.9677 41.6129 18.1384 41.6129 20.8065V28.0694C41.5292 28.0505 41.4465 28.0302 41.3608 28.0156L39.1935 27.6547V26.6187C40.0771 25.9084 40.6452 24.8211 40.6452 23.6018L40.6418 20.536L39.9556 20.8519C39.946 20.8568 38.9792 21.2903 36.7742 21.2903C34.5692 21.2903 33.6024 20.8568 33.5966 20.8544L32.9032 20.5219V22.0737C32.596 21.8961 32.2708 21.7505 31.9355 21.6315V20.8065ZM35.041 24.2235C34.7264 23.6715 34.3282 23.1881 33.871 22.7782V21.9532C34.4463 22.0979 35.3952 22.2581 36.7742 22.2581C38.1532 22.2581 39.1021 22.0979 39.6774 21.9532V23.6018C39.6774 25.2029 38.3753 26.505 36.7742 26.505C36.6121 26.505 36.451 26.4871 36.2903 26.4595V25.7468C36.2903 24.9944 35.7527 24.3658 35.041 24.2235ZM35.8694 29.6265C36.1384 28.9834 36.2903 28.2905 36.2903 27.5806V27.4379C36.451 27.4582 36.6126 27.4732 36.7742 27.4732C37.2876 27.4732 37.7773 27.3706 38.2258 27.1882V27.9866L36.7742 32.3415L35.8694 29.6265ZM35.909 32.806L34.5837 31.4806C34.8223 31.259 35.0337 31.0147 35.2258 30.7558L35.909 32.806ZM39.0382 28.6094L39.8027 28.7366L40.1197 30.3247L37.6394 32.8055L39.0382 28.6094ZM29.2268 22.3181C31.3127 21.9948 33.3513 23.0337 34.3055 24.8976L34.441 25.1613H34.7366C35.0598 25.1613 35.3226 25.424 35.3226 25.7468V27.5806C35.3226 28.5794 34.9703 29.5432 34.3544 30.3106L34.3519 27.3421L33.6832 27.6184C33.6726 27.6232 32.5737 28.0645 30 28.0645C27.4263 28.0645 26.3274 27.6232 26.3197 27.6198L25.6452 27.331V29.1876C25.2537 28.3742 25.0897 27.4592 25.1927 26.5379C25.4298 24.4166 27.1263 22.6423 29.2268 22.3181ZM24.5947 29.1852C24.704 29.4677 24.8308 29.7435 24.9837 30.0068L24.1302 29.4944L24.5947 29.1852ZM23.2427 28.9234L21.7742 27.8226V27.1877C22.2227 27.3702 22.7124 27.4727 23.2258 27.4727C23.5606 27.4727 23.8887 27.4248 24.2085 27.3397C24.2216 27.6339 24.2531 27.9256 24.3097 28.2121L23.2427 28.9234ZM25.216 31.274L25.6902 31.5585C25.8329 32.6047 26.3473 33.5313 27.0968 34.2044V35.3226H25.1047L24.6958 32.054L25.216 31.274ZM27.4611 36.331L29.1542 37.6853L27.7273 38.5418L26.4145 36.5724L27.4611 36.331ZM28.0645 35.5737V34.8629C28.6485 35.1542 29.3042 35.3226 30 35.3226C30.6958 35.3226 31.3515 35.1547 31.9355 34.8629V35.5737L30 37.1221L28.0645 35.5737ZM32.5389 36.3305L33.5855 36.5719L32.2727 38.5413L30.8458 37.6848L32.5389 36.3305ZM30 34.3548C28.1327 34.3548 26.6129 32.835 26.6129 30.9677V28.71C27.2453 28.8576 28.3437 29.0323 30 29.0323C31.6563 29.0323 32.7547 28.8576 33.3871 28.71V30.9677C33.3871 32.835 31.8673 34.3548 30 34.3548ZM19.3548 20.5219V22.2508C19.0471 21.839 18.871 21.3339 18.871 20.8065V20.3226C18.871 17.9211 20.8244 15.9677 23.2258 15.9677C24.7713 15.9677 26.2152 16.8024 26.9932 18.1456L27.1331 18.3871H27.5806C27.8477 18.3871 28.0645 18.6039 28.0645 18.871V20.8065C28.0645 21.1098 28.0035 21.4055 27.8903 21.69C27.615 21.7989 27.3498 21.929 27.0958 22.0781L27.0939 20.5365L26.4077 20.8524C26.3976 20.8568 25.4308 21.2903 23.2258 21.2903C21.0208 21.2903 20.054 20.8568 20.0482 20.8544L19.3548 20.5219ZM20.3226 23.6018V21.9532C20.8979 22.0979 21.8468 22.2581 23.2258 22.2581C24.6048 22.2581 25.5537 22.0979 26.129 21.9532V22.7831C25.125 23.6894 24.4331 24.9373 24.2492 26.3134C23.9202 26.4387 23.5776 26.5055 23.2258 26.5055C21.6247 26.505 20.3226 25.2029 20.3226 23.6018ZM21.1655 28.5755L22.3597 29.4711L20.9724 30.3039L20.0473 28.7623L21.1655 28.5755ZM21.3469 35.3226H18.871V33.871H17.9032V35.3226H15.9677V32.3115C15.9677 30.6484 17.1581 29.2432 18.7979 28.9703L19.0215 28.9331L20.6405 31.6316L21.2356 31.2745L21.7553 32.054L21.3469 35.3226ZM22.3219 35.3226L22.7598 31.8169L22.066 30.7761L23.2258 30.0803L24.3852 30.7756L23.6913 31.8165L24.1292 35.3226H22.3219ZM28.1153 44.0323H24.6774V41.6129H23.7097V44.0323H21.7742V40.3374C21.7742 38.7508 22.8537 37.3935 24.3997 37.0374L25.4066 36.8052L27.434 39.8458L28.0098 39.5003L28.5319 40.2832L28.1153 44.0323ZM30.9111 44.0323H29.0894L29.5331 40.0394L28.8411 39.0015L30 38.3061L31.1594 39.0015L30.4674 40.0394L30.9111 44.0323ZM38.2258 40.3374V44.0323H36.2903V41.6129H35.3226V44.0323H31.8847L31.4681 40.2832L31.9902 39.5003L32.566 39.8458L34.5934 36.8052L35.6003 37.0374C37.1463 37.3935 38.2258 38.7508 38.2258 40.3374ZM44.0323 35.3226H42.0968V33.871H41.129V35.3226H32.9032V34.2044C33.4495 33.7137 33.871 33.0885 34.1153 32.3797L36.7742 35.039L41.1706 30.6431L40.8232 28.9069L41.2021 28.9703C42.8419 29.2437 44.0323 30.6489 44.0323 32.3115V35.3226Z" fill="#78706A"/>
</g>
</g>
<defs>
<clipPath id="clip0_2003_2069">
<rect width="30" height="30" fill="white" transform="translate(15 15)"/>
</clipPath>
<clipPath id="clip1_2003_2069">
<rect width="30" height="30" fill="white" transform="translate(15 15)"/>
</clipPath>
</defs>
</svg>
