<svg width="60" height="60" viewBox="0 0 60 60" fill="none" xmlns="http://www.w3.org/2000/svg">
<rect x="0.5" y="0.5" width="59" height="59" rx="29.5" stroke="#78706A"/>
<path d="M40.0254 37.0664H36.457V35.9883H40.0254C40.418 35.9883 40.7402 35.666 40.7402 35.2734V34.3359H41.8184V35.2734C41.8125 36.2695 41.0098 37.0664 40.0254 37.0664Z" fill="#78706A"/>
<path d="M30.4395 44.707C30.1934 44.707 29.9473 44.6777 29.7129 44.625L22.6055 43.0547V29.7246H23.6836V42.1875L29.9414 43.5762C30.1055 43.6113 30.2695 43.6289 30.4395 43.6289H34.5234H38.4434C38.8359 43.6289 39.1582 43.3066 39.1582 42.9141V41.9766H40.2363V42.9141C40.2363 43.8984 39.4336 44.7012 38.4492 44.7012H34.5293L30.4395 44.707Z" fill="#78706A"/>
<path d="M40.8457 33.252H36.9141V32.1738H40.8457C41.2383 32.1738 41.5605 31.8516 41.5605 31.459V30.1406C41.5605 29.748 41.2383 29.4258 40.8457 29.4258H32.707L33.6973 24.9785C33.8027 24.5098 33.8145 24.0352 33.7383 23.5605L33.2285 20.3555C33.1875 20.0977 32.9648 19.9102 32.7012 19.9102H31.623C31.3594 19.9102 31.1309 20.1094 31.0957 20.373L30.6738 23.6602L29.7187 26.0742C29.3555 26.9824 28.6934 27.7441 27.8437 28.2246L25.7695 29.3965L25.2422 28.459L27.3164 27.2871C27.9551 26.9297 28.4531 26.3555 28.7227 25.6758L29.6309 23.3965L30.0352 20.2441C30.1406 19.4473 30.8262 18.8438 31.6289 18.8438H32.707C33.5039 18.8438 34.1719 19.4121 34.2949 20.1973L34.8047 23.4023C34.9043 24.0117 34.8809 24.627 34.7461 25.2246L34.0488 28.3594H40.8398C41.8242 28.3594 42.627 29.1621 42.627 30.1465V31.4648C42.6328 32.4492 41.8301 33.252 40.8457 33.252Z" fill="#78706A"/>
<path d="M39.1113 40.8867H36V39.8086H39.1113C39.5039 39.8086 39.8262 39.4863 39.8262 39.0938V38.1562H40.8984V39.0938C40.8984 40.084 40.0957 40.8867 39.1113 40.8867Z" fill="#78706A"/>
<path d="M23.6836 44.3379H17.4551V30.6563H18.5273V43.2598H22.6055V29.0684H17.4551V27.9961H23.6836V44.3379Z" fill="#78706A"/>
<path d="M21.1055 39.8672H20.0273V41.5781H21.1055V39.8672Z" fill="#78706A"/>
<path d="M32.4316 15.3223H31.3535V17.1797H32.4316V15.3223Z" fill="#78706A"/>
<path d="M37.6699 20.7012H35.8125V21.7793H37.6699V20.7012Z" fill="#78706A"/>
<path d="M28.3477 20.7012H26.4902V21.7793H28.3477V20.7012Z" fill="#78706A"/>
<path d="M28.211 16.895L27.3916 17.5957L28.5987 19.0073L29.4181 18.3067L28.211 16.895Z" fill="#78706A"/>
<path d="M35.5763 16.896L34.3691 18.3076L35.1885 19.0083L36.3957 17.5966L35.5763 16.896Z" fill="#78706A"/>
</svg>
