<svg width="60" height="60" viewBox="0 0 60 60" fill="none" xmlns="http://www.w3.org/2000/svg">
<rect x="0.5" y="0.5" width="59" height="59" rx="29.5" stroke="#78706A"/>
<g clip-path="url(#clip0_2003_2075)">
<path d="M29.9996 34.2189C28.7211 34.2189 27.4639 33.8921 26.3473 33.2696C25.2307 32.647 24.2918 31.7494 23.6197 30.6619C22.9476 29.5744 22.5646 28.3331 22.5071 27.056C22.4497 25.7789 22.7196 24.5083 23.2914 23.3648C23.8631 22.2213 24.7176 21.243 25.7738 20.5227C26.83 19.8024 28.0528 19.364 29.326 19.2492C30.5993 19.1344 31.8807 19.347 33.0487 19.8667C34.2167 20.3865 35.2325 21.1962 35.9996 22.2189C36.0741 22.3184 36.1062 22.4434 36.0886 22.5664C36.071 22.6895 36.0053 22.8006 35.9058 22.8752C35.8063 22.9497 35.6813 22.9818 35.5583 22.9642C35.4352 22.9466 35.3241 22.8809 35.2496 22.7814C34.2453 21.4507 32.7704 20.5542 31.1268 20.2754C29.4832 19.9965 27.7952 20.3564 26.4083 21.2814C25.0213 22.2064 24.0404 23.6265 23.6662 25.251C23.292 26.8756 23.5529 28.5817 24.3954 30.0202C25.238 31.4587 26.5985 32.5208 28.1985 32.989C29.7984 33.4573 31.5169 33.2963 33.002 32.539C34.4872 31.7818 35.6268 30.4855 36.1875 28.9155C36.7482 27.3456 36.6877 25.6207 36.0183 24.0939C35.9898 24.037 35.9731 23.9749 35.9694 23.9114C35.9656 23.8479 35.9749 23.7842 35.9965 23.7244C36.0181 23.6646 36.0517 23.6097 36.0952 23.5633C36.1387 23.5169 36.1913 23.4798 36.2496 23.4543C36.3079 23.4288 36.3708 23.4154 36.4344 23.415C36.498 23.4146 36.5611 23.4272 36.6197 23.452C36.6783 23.4767 36.7313 23.5132 36.7754 23.559C36.8195 23.6049 36.8537 23.6593 36.8761 23.7189C37.3743 24.8605 37.5804 26.1081 37.4757 27.3493C37.371 28.5904 36.9589 29.786 36.2765 30.8279C35.5941 31.8699 34.6629 32.7256 33.567 33.3176C32.4712 33.9096 31.2451 34.2193 29.9996 34.2189ZM32.1652 30.1877C32.2379 30.1356 32.2942 30.0637 32.3274 29.9807C32.3607 29.8976 32.3694 29.8068 32.3527 29.7189L32.0339 27.8439L33.3839 26.5267C33.4471 26.4659 33.492 26.3885 33.5134 26.3035C33.5348 26.2184 33.5319 26.129 33.505 26.0455C33.4782 25.962 33.4284 25.8877 33.3614 25.8311C33.2945 25.7744 33.2129 25.7377 33.1261 25.7252L31.2511 25.4533L30.4214 23.7892C30.3826 23.7112 30.3227 23.6456 30.2486 23.5997C30.1745 23.5539 30.0891 23.5296 30.0019 23.5296C29.9147 23.5296 29.8293 23.5539 29.7552 23.5997C29.6811 23.6456 29.6212 23.7112 29.5824 23.7892L28.748 25.4814L26.873 25.7533C26.7862 25.7659 26.7046 25.8026 26.6377 25.8592C26.5707 25.9158 26.5209 25.9901 26.4941 26.0736C26.4672 26.1571 26.4643 26.2465 26.4857 26.3316C26.5071 26.4166 26.552 26.494 26.6152 26.5548L27.9652 27.872L27.6464 29.747C27.6321 29.833 27.6421 29.9213 27.6752 30.0019C27.7084 30.0826 27.7633 30.1524 27.8339 30.2035C27.9045 30.2547 27.988 30.2851 28.0749 30.2914C28.1619 30.2977 28.2489 30.2796 28.3261 30.2392L29.9996 29.3439L31.6683 30.2205C31.7457 30.2606 31.8328 30.2784 31.9197 30.2717C32.0067 30.2651 32.0901 30.2344 32.1605 30.183L32.1652 30.1877ZM29.7839 28.4017L28.7339 28.9502L28.9355 27.783C28.9478 27.7083 28.9419 27.6318 28.9182 27.56C28.8945 27.4882 28.8538 27.4232 28.7996 27.3705L27.9511 26.5455L29.123 26.3767C29.1981 26.3654 29.2693 26.3361 29.3306 26.2912C29.3918 26.2463 29.4412 26.1871 29.4746 26.1189L29.9996 25.0548L30.5246 26.1142C30.5579 26.1824 30.6073 26.2416 30.6685 26.2865C30.7298 26.3314 30.801 26.3607 30.8761 26.372L32.048 26.5408L31.1996 27.3658C31.1453 27.4185 31.1046 27.4835 31.0809 27.5553C31.0573 27.6272 31.0513 27.7037 31.0636 27.7783L31.2652 28.9455L30.2199 28.397C30.1526 28.3617 30.0778 28.3433 30.0019 28.3433C29.926 28.3433 29.8512 28.3617 29.7839 28.397V28.4017ZM32.3855 37.1627C32.8971 36.9893 33.3425 36.6618 33.6605 36.2252C33.8414 35.996 34.0602 35.7994 34.3074 35.6439C34.5888 35.5441 34.8853 35.4933 35.1839 35.4939C35.7132 35.5103 36.2349 35.3647 36.6792 35.0767C37.0598 34.7065 37.3182 34.229 37.4199 33.708C37.4848 33.4188 37.599 33.1429 37.7574 32.8923C37.9657 32.6838 38.2083 32.5126 38.4746 32.3861C38.9629 32.1707 39.3736 31.8108 39.6511 31.3548C39.8322 30.8603 39.8584 30.3224 39.7261 29.8127C39.6593 29.5191 39.6434 29.2163 39.6792 28.9173C39.7749 28.6455 39.9159 28.3919 40.0964 28.1673C40.4424 27.7579 40.6551 27.2525 40.7058 26.7189C40.6543 26.1809 40.4382 25.6719 40.0871 25.2611C39.9065 25.0366 39.7654 24.7829 39.6699 24.5111C39.6341 24.2122 39.65 23.9093 39.7167 23.6158C39.8493 23.1061 39.8231 22.568 39.6417 22.0736C39.3644 21.6175 38.9537 21.2575 38.4652 21.0423C38.1989 20.9158 37.9564 20.7446 37.748 20.5361C37.5897 20.2855 37.4755 20.0096 37.4105 19.7205C37.3085 19.1995 37.0501 18.7221 36.6699 18.3517C36.2255 18.0637 35.7038 17.9182 35.1746 17.9345C34.8759 17.9351 34.5794 17.8844 34.298 17.7845C34.0522 17.6271 33.835 17.429 33.6558 17.1986C33.3378 16.7619 32.8924 16.4344 32.3808 16.2611C31.8617 16.1962 31.3352 16.291 30.8714 16.533C30.5985 16.6719 30.3035 16.7623 29.9996 16.8002C29.6968 16.7682 29.4018 16.6841 29.1277 16.5517C28.6638 16.3101 28.1374 16.2153 27.6183 16.2798C27.1067 16.4532 26.6613 16.7807 26.3433 17.2173C26.1624 17.4465 25.9436 17.6431 25.6964 17.7986C25.415 17.8984 25.1185 17.9492 24.8199 17.9486C24.2906 17.9322 23.7689 18.0778 23.3246 18.3658C22.944 18.7359 22.6856 19.2135 22.5839 19.7345C22.519 20.0237 22.4048 20.2996 22.2464 20.5502C22.0381 20.7587 21.7955 20.9299 21.5292 21.0564C21.0409 21.2718 20.6302 21.6317 20.3527 22.0877C20.3026 22.1923 20.2648 22.3024 20.2402 22.4158C20.2135 22.5401 20.2372 22.6699 20.3062 22.7767C20.3752 22.8836 20.4838 22.9586 20.6081 22.9853C20.7325 23.012 20.8623 22.9883 20.9691 22.9193C21.0759 22.8503 21.151 22.7417 21.1777 22.6173C21.1871 22.5752 21.2012 22.5344 21.2199 22.4955C21.4242 22.2213 21.6976 22.0062 22.0121 21.872C22.3756 21.6831 22.7001 21.427 22.9683 21.1173C23.2055 20.7759 23.3758 20.3926 23.4699 19.9877C23.5329 19.6529 23.6833 19.3408 23.9058 19.083C24.2062 18.9266 24.5425 18.8523 24.8808 18.8673C25.2986 18.866 25.7122 18.7848 26.0996 18.6283C26.4598 18.4265 26.778 18.1576 27.0371 17.8361C27.2396 17.5568 27.5131 17.3367 27.8292 17.1986C28.1562 17.1937 28.479 17.2728 28.7667 17.4283C29.1492 17.6097 29.5629 17.7163 29.9855 17.7423C30.408 17.7162 30.8217 17.6096 31.2042 17.4283C31.492 17.2728 31.8147 17.1937 32.1417 17.1986C32.4671 17.3252 32.7521 17.5373 32.9667 17.8127C33.2257 18.1342 33.544 18.4031 33.9042 18.6048C34.2913 18.763 34.7049 18.8457 35.123 18.8486C35.4614 18.8403 35.796 18.9212 36.0933 19.083C36.3132 19.3432 36.4604 19.6569 36.5199 19.9923C36.6168 20.3979 36.7903 20.7814 37.0308 21.122C37.3106 21.4281 37.6463 21.6779 38.0199 21.858C38.3333 21.9986 38.6035 22.2203 38.8027 22.5002C38.8898 22.8257 38.8898 23.1684 38.8027 23.4939C38.7106 23.9033 38.6978 24.3266 38.7652 24.7408C38.8821 25.1328 39.073 25.4988 39.3277 25.8189C39.567 26.0825 39.7291 26.4068 39.7964 26.7564C39.7291 27.106 39.567 27.4303 39.3277 27.6939C39.0731 28.0141 38.8822 28.3801 38.7652 28.772C38.6978 29.1862 38.7106 29.6095 38.8027 30.0189C38.8896 30.3445 38.8896 30.6871 38.8027 31.0127C38.5983 31.2868 38.325 31.5019 38.0105 31.6361C37.6444 31.8016 37.3122 32.0336 37.0308 32.3205C36.7936 32.6619 36.6234 33.0452 36.5292 33.4502C36.4663 33.7849 36.3159 34.097 36.0933 34.3548C35.7929 34.5112 35.4566 34.5855 35.1183 34.5705C34.7005 34.5718 34.2869 34.653 33.8996 34.8095C33.5394 35.0113 33.2211 35.2802 32.9621 35.6017C32.7595 35.881 32.486 36.1011 32.1699 36.2392C31.8428 36.2443 31.52 36.1652 31.2324 36.0095C30.8499 35.8281 30.4362 35.7215 30.0136 35.6955C29.5911 35.7216 29.1774 35.8282 28.7949 36.0095C28.5072 36.1652 28.1844 36.2443 27.8574 36.2392C27.532 36.1127 27.247 35.9005 27.0324 35.6252C26.7734 35.3036 26.4551 35.0347 26.0949 34.833C25.7079 34.6748 25.2942 34.5921 24.8761 34.5892C24.5377 34.5975 24.2031 34.5166 23.9058 34.3548C23.6859 34.0946 23.5387 33.7809 23.4792 33.4455C23.3823 33.0399 23.2089 32.6564 22.9683 32.3158C22.6885 32.0097 22.3528 31.7599 21.9792 31.5798C21.6658 31.4392 21.3956 31.2175 21.1964 30.9376C21.1093 30.6121 21.1093 30.2694 21.1964 29.9439C21.2885 29.5345 21.3013 29.1112 21.2339 28.697C21.117 28.305 20.9261 27.939 20.6714 27.6189C20.4321 27.3553 20.27 27.031 20.2027 26.6814C20.2702 26.3319 20.4323 26.0076 20.6714 25.7439L20.8261 25.5189C21.0123 25.2614 21.1505 24.9724 21.2339 24.6658C21.2832 24.3788 21.2832 24.0856 21.2339 23.7986C21.2265 23.737 21.2071 23.6775 21.1767 23.6235C21.1463 23.5694 21.1056 23.5219 21.0569 23.4836C21.0081 23.4453 20.9523 23.417 20.8926 23.4002C20.8329 23.3835 20.7705 23.3787 20.7089 23.3861C20.6474 23.3935 20.5879 23.4129 20.5338 23.4433C20.4798 23.4737 20.4323 23.5144 20.3939 23.5632C20.3556 23.6119 20.3273 23.6677 20.3106 23.7274C20.2939 23.7871 20.289 23.8495 20.2964 23.9111C20.3273 24.0926 20.3273 24.278 20.2964 24.4595C20.2367 24.6546 20.1448 24.8384 20.0246 25.0033L19.8792 25.2142C19.531 25.6419 19.326 26.1683 19.2933 26.7189C19.3449 27.2569 19.5609 27.7659 19.9121 28.1767C20.0926 28.4012 20.2337 28.6549 20.3292 28.9267C20.365 29.2256 20.3491 29.5285 20.2824 29.822C20.1498 30.3317 20.176 30.8698 20.3574 31.3642C20.6347 31.8203 21.0454 32.1803 21.5339 32.3955C21.8002 32.522 22.0428 32.6932 22.2511 32.9017C22.4094 33.1523 22.5236 33.4282 22.5886 33.7173C22.6906 34.2383 22.949 34.7157 23.3292 35.0861C23.7736 35.3741 24.2953 35.5196 24.8246 35.5033C25.1232 35.5027 25.4197 35.5534 25.7011 35.6533C25.9482 35.8089 26.167 36.0054 26.348 36.2345C26.666 36.6712 27.1114 36.9987 27.623 37.172C28.142 37.2363 28.6684 37.1415 29.1324 36.9002C29.4042 36.7634 29.6975 36.6746 29.9996 36.6377C30.3023 36.6696 30.5973 36.7537 30.8714 36.8861C31.2438 37.0628 31.6461 37.1677 32.0574 37.1955C32.1662 37.1951 32.2747 37.1825 32.3808 37.158L32.3855 37.1627ZM22.4996 32.3908L21.5058 43.3314L27.773 37.0595C27.8498 36.9699 27.8899 36.8545 27.8854 36.7365C27.8808 36.6186 27.8319 36.5067 27.7484 36.4232C27.6649 36.3397 27.553 36.2908 27.435 36.2862C27.3171 36.2817 27.2017 36.3218 27.1121 36.3986L21.4871 42.0236L20.9761 38.9439C20.9599 38.8478 20.9142 38.7592 20.8453 38.6903C20.7764 38.6214 20.6878 38.5757 20.5917 38.5595L17.5074 38.0439L22.7246 32.8127C22.8013 32.723 22.8415 32.6076 22.8369 32.4897C22.8324 32.3717 22.7835 32.2598 22.7 32.1763C22.6165 32.0928 22.5046 32.0439 22.3866 32.0393C22.2686 32.0348 22.1533 32.0749 22.0636 32.1517L16.1996 38.0252C16.1391 38.086 16.0966 38.1623 16.0765 38.2457C16.0564 38.3291 16.0596 38.4164 16.0857 38.4981C16.1118 38.5798 16.1598 38.6527 16.2245 38.709C16.2892 38.7653 16.3682 38.8028 16.4527 38.8173L20.0996 39.4267L20.7089 43.0736C20.7235 43.1581 20.761 43.237 20.8172 43.3017C20.8735 43.3664 20.9465 43.4144 21.0282 43.4406C21.1099 43.4667 21.1972 43.4698 21.2806 43.4498C21.364 43.4297 21.4402 43.3871 21.5011 43.3267L22.4996 32.3908ZM40.598 35.4892C40.6853 35.4014 40.7343 35.2826 40.7343 35.1587C40.7343 35.0349 40.6853 34.9161 40.598 34.8283L37.9683 32.208C37.8786 32.1312 37.7633 32.091 37.6453 32.0956C37.5273 32.1002 37.4154 32.1491 37.3319 32.2325C37.2485 32.316 37.1996 32.4279 37.195 32.5459C37.1904 32.6639 37.2306 32.7792 37.3074 32.8689L39.923 35.4845C40.0108 35.5718 40.1296 35.6208 40.2535 35.6208C40.3773 35.6208 40.4961 35.5718 40.5839 35.4845L40.598 35.4892ZM38.9714 43.458C39.0535 43.4315 39.1266 43.383 39.1829 43.3176C39.2391 43.2523 39.2762 43.1727 39.2902 43.0877L39.8996 39.4408L43.5464 38.8314C43.631 38.8168 43.7099 38.7794 43.7746 38.7231C43.8393 38.6668 43.8873 38.5938 43.9134 38.5121C43.9395 38.4304 43.9427 38.3431 43.9226 38.2597C43.9025 38.1764 43.86 38.1001 43.7996 38.0392L42.4683 36.6986C42.3786 36.6218 42.2633 36.5817 42.1453 36.5862C42.0273 36.5908 41.9154 36.6397 41.8319 36.7232C41.7485 36.8067 41.6996 36.9186 41.695 37.0365C41.6904 37.1545 41.7306 37.2699 41.8074 37.3595L42.4917 38.0439L39.4121 38.5548C39.316 38.571 39.2274 38.6167 39.1585 38.6856C39.0896 38.7545 39.0439 38.8431 39.0277 38.9392L38.5167 42.0189L33.1449 36.6517C33.0552 36.5749 32.9398 36.5348 32.8219 36.5393C32.7039 36.5439 32.592 36.5928 32.5085 36.6763C32.425 36.7598 32.3761 36.8717 32.3716 36.9897C32.367 37.1076 32.4071 37.223 32.4839 37.3127L38.4933 43.3314C38.5534 43.3917 38.6288 43.4344 38.7114 43.455C38.794 43.4757 38.8806 43.4735 38.9621 43.4486L38.9714 43.458ZM41.2496 35.6252C41.1568 35.6252 41.0662 35.6526 40.9891 35.7041C40.912 35.7557 40.852 35.8289 40.8165 35.9145C40.781 36.0002 40.7717 36.0944 40.7898 36.1854C40.8079 36.2763 40.8525 36.3598 40.9181 36.4254C40.9837 36.4909 41.0672 36.5356 41.1581 36.5536C41.249 36.5717 41.3433 36.5624 41.4289 36.527C41.5146 36.4915 41.5878 36.4314 41.6393 36.3543C41.6908 36.2772 41.7183 36.1866 41.7183 36.0939C41.7183 35.9696 41.6689 35.8504 41.581 35.7624C41.4931 35.6745 41.3739 35.6252 41.2496 35.6252Z" fill="#78706A"/>
</g>
<defs>
<clipPath id="clip0_2003_2075">
<rect width="30" height="30" fill="white" transform="translate(15 15)"/>
</clipPath>
</defs>
</svg>
