<svg xmlns="http://www.w3.org/2000/svg" width="60" height="60" fill="none">
    <g clip-path="url(#a)">
        <mask id="b" width="60" height="60" x="0" y="0" maskUnits="userSpaceOnUse" style="mask-type:luminance">
            <path fill="#fff" d="M60 0H0v60h60V0Z" />
        </mask>
        <g fill="#fff" mask="url(#b)">
            <path d="M33.186 10.915c-6.14-6.14-16.13-6.14-22.27 0A15.643 15.643 0 0 0 6.306 22.05c0 4.206 1.638 8.16 4.612 11.134A15.695 15.695 0 0 0 22.05 37.79a15.7 15.7 0 0 0 11.135-4.605 15.643 15.643 0 0 0 4.612-11.134c0-4.206-1.638-8.16-4.612-11.135Zm-1.487 20.782c-5.32 5.32-13.976 5.32-19.295 0a13.554 13.554 0 0 1-3.996-9.647c0-3.645 1.419-7.07 3.996-9.648a13.602 13.602 0 0 1 9.647-3.99c3.494 0 6.988 1.33 9.648 3.99a13.554 13.554 0 0 1 3.996 9.648c0 3.644-1.42 7.07-3.996 9.647Z" />
            <path d="M22.052 9.598a1.052 1.052 0 0 0 0 2.103c5.706 0 10.349 4.642 10.349 10.349a1.052 1.052 0 0 0 2.103 0c0-6.866-5.586-12.452-12.452-12.452Z" />
            <path d="M57.921 47.871 41.843 31.794a21.96 21.96 0 0 0 2.26-9.744c0-5.89-2.294-11.427-6.46-15.592A21.905 21.905 0 0 0 22.054 0 21.906 21.906 0 0 0 6.46 6.458 21.906 21.906 0 0 0 .002 22.05c0 5.89 2.294 11.427 6.458 15.592A21.905 21.905 0 0 0 22.052 44.1c3.436 0 6.75-.782 9.744-2.258l16.077 16.077A7.058 7.058 0 0 0 52.897 60a7.058 7.058 0 0 0 5.024-2.081 7.113 7.113 0 0 0 0-10.047ZM9.248 34.855A17.989 17.989 0 0 1 3.945 22.05 17.99 17.99 0 0 1 9.248 9.246a17.989 17.989 0 0 1 12.804-5.303c4.837 0 9.384 1.883 12.804 5.303a17.989 17.989 0 0 1 5.303 12.804c0 4.837-1.883 9.384-5.303 12.804a17.989 17.989 0 0 1-12.804 5.303 17.988 17.988 0 0 1-12.804-5.303ZM55.133 55.13a3.141 3.141 0 0 1-2.236.926 3.141 3.141 0 0 1-2.236-.926L35.25 39.719a22.358 22.358 0 0 0 4.472-4.472L55.133 50.66a3.165 3.165 0 0 1 0 4.471Z" />
        </g>
    </g>
    <defs>
        <clipPath id="a">
            <path fill="#fff" d="M0 0h60v60H0z" />
        </clipPath>
    </defs>
</svg>