<svg width="40" height="40" viewBox="0 0 40 40" fill="none" xmlns="http://www.w3.org/2000/svg">
<rect x="0.5" y="0.5" width="39" height="39" rx="19.5" stroke="#B2A9A1"/>
<g clip-path="url(#clip0_2001_1896)">
<path d="M19.7333 10.2676C13.9389 10.5704 10.1139 15.1148 10.3556 20.8454C10.4611 23.3537 11.4694 25.512 11.7083 27.8926C11.7694 28.5092 11.5917 29.2704 12.3028 29.5398C13.1778 29.8704 14.5194 29.3148 15.2528 28.8065C15.5028 28.637 15.7417 28.4398 15.925 28.1954C16.6833 28.6981 17.4028 29.1842 18.3056 29.4009C22.2806 30.3537 26.6361 28.1731 28.5722 24.6704C32.2111 18.0898 27.2917 9.87314 19.7333 10.2676ZM17.4833 24.0009C17.1694 24.2454 16.8667 24.5787 16.5194 24.7704C16.0167 25.0398 15.8611 24.7592 15.6722 24.3148C15.0778 22.9009 15.0056 20.4926 15.3528 19.012C15.8194 16.9981 17.3778 15.2259 19.5194 15.037C21.6861 14.8454 23.6972 15.9454 24.6056 17.9315C26.6167 22.3509 21.4694 26.7148 17.4833 24.0037V24.0009Z" fill="#B2A9A1"/>
</g>
<defs>
<clipPath id="clip0_2001_1896">
<rect width="20" height="20" fill="white" transform="translate(10 10)"/>
</clipPath>
</defs>
</svg>
