<svg width="40" height="40" viewBox="0 0 40 40" fill="none" xmlns="http://www.w3.org/2000/svg">
<rect x="0.5" y="0.5" width="39" height="39" rx="19.5" stroke="#5A4C40"/>
<g clip-path="url(#clip0_2001_1891)">
<path d="M19.7333 10.2666C13.9389 10.5694 10.1139 15.1138 10.3556 20.8444C10.4611 23.3527 11.4694 25.511 11.7083 27.8916C11.7694 28.5083 11.5917 29.2694 12.3028 29.5388C13.1778 29.8694 14.5194 29.3138 15.2528 28.8055C15.5028 28.6361 15.7417 28.4388 15.925 28.1944C16.6833 28.6972 17.4028 29.1833 18.3056 29.3999C22.2806 30.3527 26.6361 28.1722 28.5722 24.6694C32.2111 18.0888 27.2917 9.87216 19.7333 10.2666ZM17.4833 23.9999C17.1694 24.2444 16.8667 24.5777 16.5194 24.7694C16.0167 25.0388 15.8611 24.7583 15.6722 24.3138C15.0778 22.8999 15.0056 20.4916 15.3528 19.0111C15.8194 16.9972 17.3778 15.2249 19.5194 15.0361C21.6861 14.8444 23.6972 15.9444 24.6056 17.9305C26.6167 22.3499 21.4694 26.7138 17.4833 24.0027V23.9999Z" fill="#5A4C40"/>
</g>
<defs>
<clipPath id="clip0_2001_1891">
<rect width="20" height="20" fill="white" transform="translate(10 10)"/>
</clipPath>
</defs>
</svg>
