<svg width="24" height="24" viewBox="0 0 24 24" fill="none" xmlns="http://www.w3.org/2000/svg">
<path d="M16.6292 13.8914L17.0852 13.4384L16.0262 12.3744L15.5722 12.8274L16.6292 13.8914ZM18.6142 13.2484L20.5252 14.2874L21.2402 12.9694L19.3302 11.9314L18.6142 13.2484ZM20.8922 16.3514L19.4722 17.7644L20.5292 18.8274L21.9492 17.4154L20.8922 16.3514ZM18.6062 18.2184C17.1562 18.3544 13.4062 18.2334 9.34417 14.1954L8.28617 15.2584C12.7182 19.6654 16.9372 19.8814 18.7462 19.7124L18.6062 18.2184ZM9.34417 14.1954C5.47317 10.3454 4.83117 7.10845 4.75117 5.70345L3.25317 5.78845C3.35317 7.55645 4.14817 11.1444 8.28617 15.2584L9.34417 14.1954ZM10.7192 8.01545L11.0062 7.72945L9.95017 6.66645L9.66317 6.95145L10.7192 8.01545ZM11.2342 4.09445L9.97417 2.41045L8.77317 3.31045L10.0332 4.99345L11.2342 4.09445ZM5.73317 2.04345L4.16317 3.60345L5.22117 4.66745L6.79017 3.10745L5.73317 2.04345ZM10.1912 7.48345C9.66117 6.95145 9.66117 6.95145 9.66117 6.95345H9.65917L9.65617 6.95745C9.60865 7.00536 9.5661 7.05796 9.52917 7.11445C9.47517 7.19445 9.41617 7.29945 9.36617 7.43245C9.24445 7.77577 9.21412 8.14486 9.27817 8.50345C9.41217 9.36845 10.0082 10.5114 11.5342 12.0294L12.5922 10.9654C11.1632 9.54545 10.8232 8.68145 10.7602 8.27345C10.7302 8.07945 10.7612 7.98345 10.7702 7.96145C10.7762 7.94811 10.7762 7.94611 10.7702 7.95545C10.7613 7.96925 10.7512 7.98229 10.7402 7.99445L10.7302 8.00445L10.7202 8.01345L10.1912 7.48345ZM11.5342 12.0294C13.0612 13.5474 14.2102 14.1394 15.0762 14.2714C15.5192 14.3394 15.8762 14.2854 16.1472 14.1844C16.299 14.1289 16.4408 14.0492 16.5672 13.9484L16.6172 13.9034L16.6242 13.8974L16.6272 13.8944L16.6282 13.8924C16.6282 13.8924 16.6292 13.8914 16.1002 13.3594C15.5702 12.8274 15.5732 12.8264 15.5732 12.8264L15.5752 12.8244L15.5772 12.8224L15.5832 12.8174L15.5932 12.8074L15.6312 12.7774C15.6405 12.7714 15.6382 12.7721 15.6242 12.7794C15.5992 12.7884 15.5012 12.8194 15.3042 12.7894C14.8902 12.7254 14.0202 12.3854 12.5922 10.9654L11.5342 12.0294ZM9.97417 2.40945C8.95417 1.04945 6.95017 0.833448 5.73317 2.04345L6.79017 3.10745C7.32217 2.57845 8.26617 2.63345 8.77317 3.31045L9.97417 2.40945ZM4.75217 5.70445C4.73217 5.35845 4.89117 4.99645 5.22117 4.66845L4.16217 3.60445C3.62517 4.13845 3.20217 4.89445 3.25317 5.78845L4.75217 5.70445ZM19.4722 17.7644C19.1982 18.0384 18.9022 18.1924 18.6072 18.2194L18.7462 19.7124C19.4812 19.6434 20.0822 19.2734 20.5302 18.8284L19.4722 17.7644ZM11.0062 7.72945C11.9912 6.75045 12.0642 5.20345 11.2352 4.09545L10.0342 4.99445C10.4372 5.53345 10.3772 6.24045 9.94917 6.66745L11.0062 7.72945ZM20.5262 14.2884C21.3432 14.7324 21.4702 15.7784 20.8932 16.3524L21.9512 17.4154C23.2912 16.0824 22.8782 13.8594 21.2412 12.9704L20.5262 14.2884ZM17.0852 13.4394C17.4692 13.0574 18.0872 12.9634 18.6152 13.2494L19.3312 11.9324C18.2472 11.3424 16.9032 11.5054 16.0272 12.3754L17.0852 13.4394Z" fill="#FCFBFA"/>
</svg>
