<svg width="40" height="40" viewBox="0 0 40 40" fill="none" xmlns="http://www.w3.org/2000/svg">
<rect x="0.5" y="0.5" width="39" height="39" rx="19.5" stroke="#B2A9A1"/>
<path d="M25.0943 15.1459C25.6874 14.9307 25.9818 14.8533 26.1449 14.8256C26.1461 14.8777 26.1449 14.92 26.1422 14.9478C25.9096 17.3917 24.8906 23.4043 24.3672 26.2021C24.2447 26.8573 24.1507 27.1692 23.5179 26.7975C23.1014 26.5527 22.7245 26.2447 22.3207 25.98C20.9961 25.1116 19.1 23.8184 19.2557 23.8962C17.9516 23.0368 18.4975 22.5106 19.2255 21.8088C19.3434 21.6952 19.466 21.577 19.5863 21.452C19.64 21.3962 19.9027 21.1519 20.2731 20.8076C21.4612 19.703 23.7571 17.5685 23.8151 17.3215C23.8246 17.281 23.8334 17.13 23.7436 17.0502C23.6539 16.9704 23.5215 16.9977 23.4259 17.0194C23.2904 17.0502 21.1326 18.4764 16.9524 21.2981C16.3399 21.7187 15.7852 21.9237 15.2881 21.9129L15.2926 21.9151C14.6378 21.6842 13.9849 21.4854 13.3285 21.2855C12.8974 21.1541 12.4647 21.0223 12.029 20.8807C11.9225 20.8461 11.8185 20.8132 11.7208 20.7825C16.2478 18.8104 19.263 17.5119 20.7739 16.8835C22.9684 15.9708 24.2701 15.445 25.0943 15.1459ZM27.5169 13.2176C27.2635 13.012 26.985 12.9176 26.7915 12.8714C26.5917 12.8236 26.4018 12.8083 26.2578 12.8108C25.7814 12.8192 25.2697 12.9547 24.4121 13.2659C23.5373 13.5833 22.193 14.1271 20.0058 15.0369C18.4638 15.6783 15.3939 17.0007 10.8036 19.0005C10.4005 19.1617 10.0309 19.3446 9.73884 19.5614C9.46919 19.7617 9.09173 20.12 9.02268 20.6709C8.97052 21.0869 9.09182 21.4709 9.33782 21.7733C9.55198 22.0365 9.82635 22.1964 10.0353 22.2976C10.3454 22.4478 10.7628 22.5786 11.1295 22.6936C11.7026 22.8732 12.2744 23.0567 12.8488 23.2325C14.6269 23.7768 16.0907 24.2248 17.7012 25.2861C18.8825 26.0646 20.041 26.877 21.2243 27.6526C21.6559 27.9355 22.0593 28.2602 22.5049 28.5219C22.9916 28.8079 23.6104 29.0687 24.3636 28.9993C25.5019 28.8946 26.0941 27.8474 26.3331 26.5698C26.8552 23.7791 27.8909 17.683 28.1332 15.1373C28.1648 14.805 28.1278 14.4325 28.097 14.2527C28.0653 14.0675 27.9684 13.584 27.5169 13.2176Z" fill="#B2A9A1"/>
</svg>
