<svg width="40" height="40" viewBox="0 0 40 40" fill="none" xmlns="http://www.w3.org/2000/svg">
<rect x="0.5" y="0.5" width="39" height="39" rx="19.5" stroke="#B2A9A1"/>
<g clip-path="url(#clip0_2003_1991)">
<path d="M28.8124 10.3392C28.2171 9.79081 25.8077 8.04237 20.4358 8.01894C20.4358 8.01894 14.103 7.63925 11.0187 10.4705C9.30303 12.1861 8.69834 14.7033 8.63271 17.8205C8.56709 20.9377 8.4874 26.7783 14.1171 28.3627H14.1218L14.1171 30.7814C14.1171 30.7814 14.0796 31.7611 14.7265 31.958C15.5046 32.2017 15.964 31.4564 16.7093 30.6549C17.1171 30.2142 17.6796 29.5674 18.1062 29.0752C21.9593 29.3986 24.9171 28.658 25.2546 28.5502C26.0327 28.2971 30.4343 27.7346 31.1468 21.8939C31.8874 15.8658 30.7905 12.0596 28.8124 10.3392ZM29.464 21.4533C28.8593 26.3283 25.2921 26.6377 24.6358 26.8486C24.3546 26.9377 21.753 27.5846 18.4858 27.3736C18.4858 27.3736 16.0483 30.3127 15.289 31.0767C15.0405 31.3252 14.7687 31.3017 14.7733 30.8096C14.7733 30.4861 14.7921 26.7924 14.7921 26.7924C14.7874 26.7924 14.7874 26.7924 14.7921 26.7924C10.0202 25.4705 10.3015 20.4971 10.353 17.8955C10.4046 15.2939 10.8968 13.1611 12.3499 11.7267C14.9608 9.35956 20.3374 9.71112 20.3374 9.71112C24.8796 9.72987 27.0546 11.0986 27.5608 11.558C29.2343 12.9924 30.0874 16.4236 29.464 21.4533ZM22.9483 17.6658C22.9671 18.0689 22.3624 18.0971 22.3437 17.6939C22.2921 16.6627 21.8093 16.1611 20.8155 16.1049C20.4124 16.0814 20.4499 15.4767 20.8483 15.5002C22.1562 15.5705 22.8827 16.3205 22.9483 17.6658ZM23.8999 18.1955C23.9468 16.208 22.7046 14.6517 20.3468 14.4783C19.9483 14.4502 19.9905 13.8455 20.389 13.8736C23.1077 14.0705 24.5562 15.9408 24.5046 18.2096C24.4999 18.6127 23.8905 18.5939 23.8999 18.1955ZM26.103 18.8236C26.1077 19.2267 25.4983 19.2314 25.4983 18.8283C25.4702 15.008 22.9249 12.9267 19.8358 12.9033C19.4374 12.8986 19.4374 12.2986 19.8358 12.2986C23.2905 12.3221 26.0702 14.708 26.103 18.8236ZM25.5733 23.4221V23.4314C25.0671 24.3221 24.1202 25.3064 23.1452 24.9924L23.1358 24.9783C22.1468 24.7017 19.8171 23.5017 18.3452 22.3299C17.5858 21.7299 16.8921 21.0221 16.3577 20.3424C15.8749 19.7377 15.3874 19.0205 14.914 18.158C13.9155 16.3533 13.6952 15.5471 13.6952 15.5471C13.3812 14.5721 14.3608 13.6252 15.2562 13.1189H15.2655C15.6968 12.8939 16.1093 12.9689 16.3858 13.3017C16.3858 13.3017 16.9671 13.9955 17.2155 14.3377C17.4499 14.6564 17.764 15.1674 17.928 15.4533C18.214 15.9642 18.0358 16.4846 17.7546 16.7002L17.1921 17.1502C16.9062 17.3799 16.9437 17.8064 16.9437 17.8064C16.9437 17.8064 17.778 20.9611 20.8952 21.758C20.8952 21.758 21.3218 21.7955 21.5515 21.5096L22.0015 20.9471C22.2171 20.6658 22.7374 20.4877 23.2483 20.7736C23.9374 21.1627 24.814 21.7674 25.3952 22.3158C25.7233 22.583 25.7983 22.9908 25.5733 23.4221Z" fill="#B2A9A1"/>
</g>
<defs>
<clipPath id="clip0_2003_1991">
<rect width="24" height="24" fill="white" transform="translate(8 8)"/>
</clipPath>
</defs>
</svg>
