<svg width="40" height="40" viewBox="0 0 40 40" fill="none" xmlns="http://www.w3.org/2000/svg">
<rect x="0.5" y="0.5" width="39" height="39" rx="19.5" stroke="#B2A9A1"/>
<path d="M15.2536 26.4944L15.9783 26.917C17.1891 27.623 18.5651 28 20.001 28C24.4193 28 28.001 24.4183 28.001 20C28.001 15.5817 24.4193 12 20.001 12C15.5827 12 12.001 15.5817 12.001 20C12.001 21.4363 12.3782 22.8128 13.0847 24.0238L13.507 24.7478L12.8535 27.1494L15.2536 26.4944ZM10.0052 30L11.3571 25.0315C10.4949 23.5536 10.001 21.8345 10.001 20C10.001 14.4771 14.4781 10 20.001 10C25.5238 10 30.001 14.4771 30.001 20C30.001 25.5228 25.5238 30 20.001 30C18.1671 30 16.4485 29.5064 14.9709 28.6447L10.0052 30ZM16.3923 15.3083C16.5262 15.2989 16.6605 15.2975 16.7946 15.304C16.8487 15.3076 16.9026 15.3138 16.9566 15.3201C17.1158 15.3385 17.291 15.4355 17.3499 15.5689C17.6482 16.2454 17.9376 16.9256 18.2182 17.6096C18.2801 17.7606 18.2428 17.9563 18.125 18.1457C18.0652 18.2428 17.9713 18.379 17.8625 18.5183C17.7494 18.663 17.506 18.9291 17.506 18.9291C17.506 18.9291 17.4074 19.0473 17.4445 19.1944C17.459 19.25 17.5052 19.331 17.5471 19.3991C17.5703 19.4368 17.5918 19.4705 17.6058 19.4938C17.8617 19.9211 18.2057 20.3543 18.6259 20.7616C18.7463 20.8783 18.8631 20.9974 18.9887 21.108C19.457 21.5209 19.9868 21.8583 20.559 22.1082L20.5641 22.1105C20.6486 22.1469 20.692 22.1668 20.8157 22.2193C20.8781 22.2457 20.9419 22.2685 21.0074 22.2858C21.0311 22.292 21.0554 22.2955 21.0798 22.2972C21.2415 22.3069 21.335 22.2032 21.3749 22.1555C22.0984 21.279 22.1646 21.2218 22.1696 21.2222V21.2238C22.2647 21.1236 22.4142 21.0888 22.5476 21.097C22.6085 21.1007 22.6691 21.1124 22.7245 21.1377C23.2563 21.3803 24.1258 21.7587 24.1258 21.7587L24.7073 22.0201C24.8047 22.0671 24.8936 22.1778 24.8979 22.2854C24.9005 22.3523 24.9077 22.4603 24.8838 22.6579C24.8525 22.9166 24.7738 23.2281 24.6956 23.3913C24.6406 23.5058 24.5694 23.6074 24.4866 23.6934C24.3743 23.81 24.2909 23.8808 24.1559 23.9814C24.0737 24.0426 24.0311 24.0714 24.0311 24.0714C23.8922 24.159 23.8139 24.2028 23.6484 24.2909C23.391 24.428 23.1066 24.5068 22.8153 24.5218C22.6296 24.5313 22.4444 24.5447 22.2589 24.5347C22.2507 24.5342 21.6907 24.4482 21.6907 24.4482C20.2688 24.0742 18.9538 23.3736 17.8503 22.402C17.6247 22.2034 17.4155 21.9885 17.2019 21.7759C16.3129 20.8908 15.6398 19.9364 15.2317 19.0336C15.0304 18.5884 14.903 18.1116 14.901 17.621C14.8973 17.0141 15.096 16.4232 15.4657 15.9419C15.5386 15.847 15.6077 15.7485 15.7271 15.6359C15.8535 15.5165 15.9339 15.4524 16.0206 15.4081C16.1361 15.349 16.2629 15.3174 16.3923 15.3083Z" fill="#B2A9A1"/>
</svg>
